<svg width="207" height="336" viewBox="0 0 207 336" fill="none" xmlns="http://www.w3.org/2000/svg">
<g clip-path="url(#clip0_532_749)">
<path d="M100.961 177.074C117.358 177.074 130.651 163.775 130.651 147.368C130.651 130.962 117.358 117.663 100.961 117.663C84.5643 117.663 71.272 130.962 71.272 147.368C71.272 163.775 84.5643 177.074 100.961 177.074Z" fill="#76239D"/>
<path d="M28.7537 219.651C28.1247 219.35 27.5884 218.884 27.201 218.304C26.8137 217.723 26.5896 217.049 26.5523 216.352L26.1204 208.172C26.0672 207.143 26.424 206.135 27.1126 205.369C27.8012 204.603 28.7653 204.142 29.7933 204.087L97.9391 200.485C98.9672 200.432 99.9745 200.789 100.74 201.477C101.505 202.166 101.966 203.131 102.022 204.16L102.454 212.341C102.507 213.369 102.15 214.377 101.461 215.143C100.773 215.909 99.8089 216.37 98.7809 216.425L30.6351 220.028C29.9863 220.063 29.3392 219.933 28.7537 219.651Z" fill="#76239D"/>
<path d="M75.7302 219.812C75.0672 219.491 74.5087 218.989 74.1194 218.363C73.7301 217.738 73.5261 217.014 73.5309 216.278L73.4502 200.875C73.4539 200.365 73.5582 199.86 73.757 199.39C73.9558 198.919 74.2453 198.493 74.6089 198.135C74.9726 197.777 75.4032 197.494 75.8762 197.302C76.3492 197.111 76.8553 197.014 77.3655 197.019L108.454 199.761C109.277 199.766 110.315 201.041 111.151 202.065C111.412 202.387 111.639 202.664 111.804 202.832C111.877 202.906 111.946 202.983 112.011 203.061C112.605 203.769 112.927 204.666 112.918 205.59L112.85 213.781C112.841 214.811 112.423 215.795 111.689 216.518C110.955 217.24 109.964 217.642 108.935 217.634L77.4059 220.194C76.8259 220.193 76.2536 220.062 75.7302 219.812Z" fill="#2F2E41"/>
<path d="M95.1733 336H86.9857C85.9562 335.999 84.9691 335.589 84.2411 334.861C83.5131 334.132 83.1037 333.145 83.1025 332.115V262.726C83.1037 261.696 83.5132 260.708 84.2412 259.98C84.9692 259.251 85.9562 258.842 86.9857 258.84H95.1733C96.2028 258.842 97.1898 259.251 97.9178 259.98C98.6458 260.708 99.0553 261.696 99.0565 262.726V332.115C99.0553 333.145 98.6458 334.132 97.9178 334.861C97.1898 335.589 96.2028 335.999 95.1733 336Z" fill="#76239D"/>
<path d="M116.77 336H108.583C107.553 335.999 106.566 335.589 105.838 334.861C105.11 334.132 104.701 333.145 104.7 332.115V262.726C104.701 261.696 105.11 260.708 105.838 259.98C106.566 259.251 107.553 258.842 108.583 258.84H116.77C117.8 258.842 118.787 259.251 119.515 259.98C120.243 260.708 120.652 261.696 120.654 262.726V332.115C120.652 333.145 120.243 334.132 119.515 334.861C118.787 335.589 117.8 335.999 116.77 336Z" fill="#76239D"/>
<path d="M104.913 158.378L104.944 157.268C102.88 157.211 101.06 157.081 99.693 156.082C99.3053 155.782 98.9867 155.403 98.7588 154.969C98.5308 154.535 98.3989 154.058 98.372 153.568C98.348 153.269 98.3932 152.969 98.5041 152.69C98.615 152.412 98.7886 152.162 99.0115 151.962C99.9192 151.195 101.38 151.443 102.444 151.931L103.362 152.353L101.602 139.481L100.503 139.631L102 150.581C101.387 150.353 100.727 150.283 100.08 150.376C99.4328 150.469 98.8193 150.723 98.2954 151.114C97.9429 151.422 97.6663 151.807 97.4873 152.24C97.3083 152.672 97.2316 153.14 97.2633 153.607C97.2957 154.265 97.4714 154.907 97.778 155.489C98.0847 156.072 98.5149 156.58 99.0386 156.978C100.795 158.263 103.079 158.327 104.913 158.378Z" fill="#2F2E41"/>
<path d="M95.0667 140.576H89.0913V141.686H95.0667V140.576Z" fill="#2F2E41"/>
<path d="M113.928 140.576H107.953V141.686H113.928V140.576Z" fill="#2F2E41"/>
<path d="M134.786 246.297L107.382 191.621H107.769C108.725 191.62 109.641 191.24 110.317 190.563C110.993 189.887 111.374 188.97 111.375 188.013V186.903C111.374 185.947 110.993 185.03 110.317 184.353C109.641 183.677 108.725 183.297 107.769 183.296H95.5646C94.6086 183.297 93.6921 183.677 93.0161 184.353C92.3401 185.03 91.9599 185.947 91.9588 186.903V188.013C91.9616 188.896 92.2881 189.747 92.8765 190.404C93.4648 191.061 94.274 191.48 95.1503 191.579L67.6683 246.327C66.3613 248.931 65.7418 251.826 65.8688 254.737C65.9957 257.647 66.8649 260.477 68.3936 262.957C69.9223 265.437 72.0597 267.484 74.6025 268.904C77.1452 270.324 80.0088 271.07 82.9208 271.07H119.504C122.42 271.07 125.287 270.324 127.833 268.902C130.38 267.481 132.52 265.431 134.052 262.949C135.583 260.466 136.454 257.633 136.583 254.718C136.711 251.804 136.093 248.905 134.786 246.297Z" fill="#2F2E41"/>
<path d="M102.243 203.996L164.057 175.067C164.99 174.631 166.057 174.584 167.025 174.935C167.993 175.286 168.782 176.007 169.219 176.94L172.688 184.36C173.123 185.294 173.17 186.362 172.82 187.331C172.469 188.299 171.748 189.088 170.816 189.526L109.003 218.455C108.07 218.89 107.002 218.938 106.034 218.586C105.067 218.235 104.277 217.514 103.84 216.582L100.371 209.161C100.154 208.699 100.031 208.199 100.008 207.689C99.9856 207.179 100.064 206.67 100.24 206.191C100.377 205.811 100.572 205.455 100.818 205.135C101.196 204.647 101.684 204.256 102.243 203.996Z" fill="#76239D"/>
<path d="M100.124 203.817L127.338 187.587C128.266 187.142 129.332 187.082 130.303 187.423C131.274 187.763 132.071 188.474 132.519 189.401L139.382 203.197C139.604 203.658 139.732 204.159 139.76 204.67C139.788 205.182 139.714 205.693 139.543 206.176C139.373 206.659 139.108 207.103 138.765 207.483C138.422 207.863 138.008 208.172 137.545 208.391L108.474 219.627C107.713 219.993 106.218 219.308 105.017 218.757C104.641 218.584 104.316 218.435 104.093 218.357C103.996 218.323 103.9 218.284 103.807 218.243C102.962 217.87 102.278 217.207 101.878 216.374L98.3293 208.991C98.0171 208.34 97.8917 207.615 97.9672 206.897C98.0427 206.179 98.316 205.496 98.7568 204.925C99.1198 204.454 99.588 204.075 100.124 203.817Z" fill="#2F2E41"/>
<path d="M77.5118 131.918C77.1146 131.917 76.7341 131.758 76.4533 131.477C76.1725 131.196 76.0144 130.815 76.0133 130.418C76.0116 130.3 76.0248 130.182 76.0528 130.067L83.8128 95.8671C83.8716 95.6095 83.9969 95.3719 84.1762 95.178C84.3556 94.9841 84.5827 94.8408 84.8348 94.7623C85.087 94.6839 85.3552 94.673 85.6129 94.7309C85.8705 94.7888 86.1084 94.9133 86.3028 95.0921L112.03 118.929C112.223 119.108 112.366 119.336 112.444 119.588C112.522 119.84 112.533 120.108 112.475 120.366C112.417 120.624 112.293 120.862 112.114 121.056C111.936 121.25 111.709 121.395 111.457 121.474L77.9629 131.85C77.8167 131.895 77.6647 131.918 77.5118 131.918Z" fill="#3F3D56"/>
<path d="M98.554 106.917L82.394 103.699L82.6483 102.576L96.9349 105.418L98.554 106.917Z" fill="white"/>
<path d="M111.279 118.711L80.3818 112.559L80.6361 111.431L109.659 117.206L111.279 118.711Z" fill="white"/>
<path d="M100.226 124.59L97.9063 125.308L78.3745 121.419L78.6288 120.29L100.226 124.59Z" fill="white"/>
<path d="M175.56 132.441C178.254 132.441 180.437 130.256 180.437 127.561C180.437 124.867 178.254 122.682 175.56 122.682C172.867 122.682 170.684 124.867 170.684 127.561C170.684 130.256 172.867 132.441 175.56 132.441Z" fill="#76239D"/>
<path d="M112.86 6.97057C114.784 6.97057 116.344 5.41015 116.344 3.48528C116.344 1.56041 114.784 0 112.86 0C110.936 0 109.377 1.56041 109.377 3.48528C109.377 5.41015 110.936 6.97057 112.86 6.97057Z" fill="#FF6584"/>
<path d="M36.9233 115.014C38.8471 115.014 40.4066 113.454 40.4066 111.529C40.4066 109.604 38.8471 108.044 36.9233 108.044C34.9995 108.044 33.4399 109.604 33.4399 111.529C33.4399 113.454 34.9995 115.014 36.9233 115.014Z" fill="#FF6584"/>
<path d="M158.84 103.164C160.764 103.164 162.324 101.604 162.324 99.6791C162.324 97.7542 160.764 96.1938 158.84 96.1938C156.916 96.1938 155.357 97.7542 155.357 99.6791C155.357 101.604 156.916 103.164 158.84 103.164Z" fill="#76239D"/>
<path d="M52.9467 150.564C54.8705 150.564 56.4301 149.004 56.4301 147.079C56.4301 145.154 54.8705 143.594 52.9467 143.594C51.0229 143.594 49.4634 145.154 49.4634 147.079C49.4634 149.004 51.0229 150.564 52.9467 150.564Z" fill="#76239D"/>
<path d="M163.02 160.323C164.944 160.323 166.504 158.763 166.504 156.838C166.504 154.913 164.944 153.352 163.02 153.352C161.097 153.352 159.537 154.913 159.537 156.838C159.537 158.763 161.097 160.323 163.02 160.323Z" fill="#E6E6E6"/>
<path d="M132.367 36.2469C134.291 36.2469 135.85 34.6865 135.85 32.7617C135.85 30.8368 134.291 29.2764 132.367 29.2764C130.443 29.2764 128.884 30.8368 128.884 32.7617C128.884 34.6865 130.443 36.2469 132.367 36.2469Z" fill="#CCCCCC"/>
<path d="M0.708336 74.5688C4.35575 74.7987 7.89679 75.8902 11.0412 77.7538C14.1856 79.6174 16.8438 82.2001 18.798 85.2901C19.3457 86.1661 20.0606 87.1287 19.6815 88.207C19.5494 88.6204 19.2811 88.9767 18.9203 89.2178C18.5596 89.4589 18.1278 89.5704 17.6955 89.5341C17.1566 89.418 16.6708 89.1277 16.313 88.708C15.9553 88.2883 15.7455 87.7625 15.716 87.2117C15.6865 86.6608 15.839 86.1156 16.1498 85.6601C16.4607 85.2045 16.9127 84.8639 17.4362 84.6909C19.9659 83.6112 22.5182 85.2798 24.5788 86.6115C29.274 89.6458 34.4384 92.3899 40.1277 92.7357C45.3917 93.0556 51.0364 90.9905 53.9643 86.4231C54.4766 85.624 53.2048 84.8856 52.695 85.6807C49.7913 90.2104 43.9211 91.8373 38.8171 91.1372C35.7755 90.6569 32.8385 89.6593 30.1333 88.1873C28.7305 87.4589 27.3698 86.6514 26.0367 85.8025C24.7682 84.9169 23.4236 84.1456 22.0187 83.4978C19.6758 82.5349 16.5742 82.6101 14.9377 84.8272C13.4109 86.8956 14.5908 90.3391 17.1445 90.9206C17.7047 91.0311 18.2835 91.0008 18.8291 90.8324C19.3747 90.664 19.87 90.3627 20.2706 89.9557C20.6712 89.5486 20.9646 89.0484 21.1245 88.5C21.2843 87.9516 21.3057 87.372 21.1866 86.8133C20.9318 85.5952 20.0151 84.4033 19.3056 83.4077C17.1737 80.407 14.3962 77.923 11.1776 76.1387C7.95903 74.3545 4.3814 73.3154 0.708251 73.098C-0.237316 73.0512 -0.234765 74.5221 0.708336 74.5688Z" fill="#CCCCCC"/>
<path d="M206.721 119.09C204.277 117.516 202.241 115.385 200.779 112.871C199.317 110.357 198.472 107.532 198.311 104.629C198.271 103.808 198.147 102.862 198.828 102.26C199.08 102.024 199.404 101.881 199.748 101.853C200.092 101.826 200.435 101.916 200.721 102.109C201.051 102.398 201.276 102.788 201.361 103.219C201.447 103.649 201.389 104.095 201.196 104.489C201.003 104.883 200.686 105.203 200.294 105.399C199.902 105.594 199.456 105.656 199.025 105.573C196.85 105.342 195.724 103.193 194.809 101.469C192.723 97.5405 190.2 93.6318 186.383 91.1851C182.851 88.9213 178.13 88.1662 174.328 90.2027C173.662 90.559 174.259 91.5651 174.921 91.2105C178.693 89.1909 183.4 90.3377 186.674 92.8035C188.6 94.3167 190.253 96.1487 191.562 98.2201C192.254 99.2701 192.886 100.359 193.483 101.465C194.021 102.572 194.656 103.629 195.38 104.624C196.634 106.202 198.818 107.352 200.813 106.447C201.258 106.217 201.642 105.886 201.936 105.48C202.23 105.075 202.425 104.606 202.506 104.112C202.586 103.617 202.55 103.111 202.4 102.633C202.25 102.155 201.99 101.719 201.641 101.359C201.295 101.065 200.881 100.862 200.437 100.767C199.993 100.673 199.532 100.69 199.096 100.817C198.66 100.945 198.263 101.178 197.939 101.497C197.616 101.816 197.376 102.21 197.243 102.644C197.037 103.665 197.033 104.716 197.23 105.739C197.548 108.65 198.514 111.452 200.058 113.94C201.603 116.427 203.685 118.536 206.151 120.112C206.79 120.511 207.358 119.489 206.721 119.09Z" fill="#CCCCCC"/>
<path d="M86.5203 22.5885C83.6194 22.4057 80.803 21.5376 78.3021 20.0554C75.8012 18.5731 73.687 16.519 72.1328 14.0614C71.6972 13.3647 71.1286 12.599 71.4301 11.7415C71.5352 11.4127 71.7486 11.1292 72.0355 10.9375C72.3224 10.7458 72.6658 10.6571 73.0096 10.686C73.4383 10.7783 73.8247 11.0092 74.1092 11.343C74.3937 11.6768 74.5606 12.095 74.584 12.5331C74.6075 12.9712 74.4862 13.4048 74.239 13.7671C73.9917 14.1295 73.6322 14.4003 73.2159 14.5379C71.2039 15.3967 69.1739 14.0696 67.535 13.0104C63.8007 10.5971 59.6932 8.4146 55.1682 8.13956C50.9815 7.88514 46.4919 9.52761 44.1633 13.1603C43.7558 13.7958 44.7674 14.3831 45.1728 13.7507C47.4823 10.148 52.1511 8.85405 56.2106 9.41089C58.6297 9.79286 60.9657 10.5864 63.1172 11.757C64.233 12.3364 65.3151 12.9787 66.3754 13.6538C67.3843 14.3582 68.4538 14.9716 69.5711 15.4868C71.4346 16.2527 73.9014 16.1929 75.203 14.4295C75.4791 14.0117 75.6537 13.535 75.7127 13.0376C75.7718 12.5401 75.7137 12.0358 75.5431 11.5648C75.3726 11.0939 75.0943 10.6694 74.7304 10.3253C74.3666 9.98118 73.9274 9.72702 73.4479 9.58313C73.0023 9.49524 72.5419 9.51936 72.108 9.6533C71.674 9.78725 71.2801 10.0268 70.9615 10.3506C70.6429 10.6744 70.4095 11.0722 70.2824 11.5084C70.1552 11.9446 70.1383 12.4055 70.233 12.8499C70.5509 13.8415 71.0591 14.7615 71.729 15.5585C73.4246 17.9452 75.6337 19.9208 78.1936 21.3399C80.7535 22.759 83.5989 23.5854 86.5204 23.7583C87.2724 23.7956 87.2704 22.6257 86.5203 22.5885Z" fill="#CCCCCC"/>
<path d="M89.1738 59.6481H85.6904V71.0998H89.1738V59.6481Z" fill="#CCCCCC"/>
<path d="M32.8526 51.6565L35.2734 49.2343L27.3193 41.2757L24.8984 43.6979L32.8526 51.6565Z" fill="#B3B3B3"/>
<path d="M130.792 75.7225L133.213 78.1446L141.167 70.186L138.746 67.7639L130.792 75.7225Z" fill="#B3B3B3"/>
<path d="M31.8653 174.704L34.2861 177.127L42.2403 169.168L39.8195 166.746L31.8653 174.704Z" fill="#FF6584"/>
</g>
<defs>
<clipPath id="clip0_532_749">
<rect width="207" height="336" fill="white"/>
</clipPath>
</defs>
</svg>
