<svg width="128" height="128" viewBox="0 0 128 128" fill="none" xmlns="http://www.w3.org/2000/svg">
<path d="M10.6667 117.333L37.3334 42.6667L85.3334 90.6667L10.6667 117.333ZM28.2667 99.7333L65.8667 86.4L41.6001 62.1333L28.2667 99.7333ZM77.6001 66.9333L72.0001 61.3333L101.867 31.4667C104.711 28.6222 108.133 27.2 112.133 27.2C116.133 27.2 119.556 28.6222 122.4 31.4667L125.6 34.6667L120 40.2667L116.8 37.0667C115.556 35.8222 114 35.2 112.133 35.2C110.267 35.2 108.711 35.8222 107.467 37.0667L77.6001 66.9333ZM56.2667 45.6L50.6667 40L53.8667 36.8C55.1112 35.5556 55.7334 34.0444 55.7334 32.2667C55.7334 30.4889 55.1112 28.9778 53.8667 27.7333L50.4001 24.2667L56.0001 18.6667L59.4667 22.1333C62.3112 24.9778 63.7334 28.3556 63.7334 32.2667C63.7334 36.1778 62.3112 39.5556 59.4667 42.4L56.2667 45.6ZM66.9334 56.2667L61.3334 50.6667L80.5334 31.4667C81.7779 30.2222 82.4001 28.6667 82.4001 26.8C82.4001 24.9333 81.7779 23.3778 80.5334 22.1333L72.0001 13.6L77.6001 8L86.1334 16.5333C88.9779 19.3778 90.4001 22.8 90.4001 26.8C90.4001 30.8 88.9779 34.2222 86.1334 37.0667L66.9334 56.2667ZM88.2667 77.6L82.6667 72L91.2001 63.4667C94.0445 60.6222 97.4667 59.2 101.467 59.2C105.467 59.2 108.889 60.6222 111.733 63.4667L120.267 72L114.667 77.6L106.133 69.0667C104.889 67.8222 103.333 67.2 101.467 67.2C99.6001 67.2 98.0445 67.8222 96.8001 69.0667L88.2667 77.6Z" fill="black"/>
</svg>
