<svg width="301" height="185" viewBox="0 0 301 185" fill="none" xmlns="http://www.w3.org/2000/svg">
<g clip-path="url(#clip0_959_130)">
<path opacity="0.1" d="M301 118.821C301.005 123.834 300.398 128.828 299.193 133.693C298.787 135.333 298.316 136.938 297.78 138.509C297.123 140.449 296.362 142.352 295.5 144.209C295.066 145.149 294.607 146.07 294.123 146.972C294.131 152.112 293.072 157.198 291.013 161.908C287.291 170.359 280.653 177.192 272.311 181.162C267.095 183.649 261.395 184.957 255.615 184.992H57.1397C48.3091 185.011 39.6311 182.693 31.9878 178.274L31.8702 178.208C30.7816 177.571 29.7202 176.897 28.686 176.185C26.3592 174.579 24.1731 172.778 22.1514 170.802C19.415 168.13 17.0038 165.145 14.9677 161.908C10.1857 154.321 7.65245 145.535 7.66134 136.569C2.81853 128.078 -0.00537109 117.907 -0.00537109 106.978C-0.00537109 93.1883 4.48221 80.6093 11.855 71.087C13.3921 69.0976 15.0758 67.2257 16.892 65.4869C18.6841 63.7664 20.6103 62.191 22.6523 60.7756C24.2861 59.6419 25.9936 58.6182 27.7634 57.7113C28.502 57.3359 29.2431 56.9809 29.997 56.6515C30.6589 56.3579 31.3285 56.0846 32.0057 55.8267C32.8184 55.5186 33.6413 55.2351 34.4744 54.9764C35.3075 54.7176 36.1295 54.4912 36.9405 54.2971C38.1331 54.006 39.3461 53.7694 40.5796 53.5872C41.6018 53.4365 42.6241 53.3319 43.6463 53.2527C44.459 53.1914 45.2793 53.1582 46.1048 53.148H46.552C47.4618 53.148 48.3664 53.1837 49.2634 53.245C49.358 53.0561 49.4602 52.8645 49.5548 52.6781C49.9126 51.9963 50.2831 51.3171 50.6562 50.6531C50.6554 50.6472 50.6554 50.6412 50.6562 50.6353C50.7201 50.5178 50.784 50.4029 50.8504 50.2905C51.152 49.7466 51.4663 49.2078 51.7883 48.6741C51.9366 48.4187 52.0822 48.1787 52.233 47.9387C52.2649 47.879 52.2999 47.8211 52.3378 47.765C52.4911 47.5097 52.647 47.2543 52.8055 46.9989C53.5943 45.7392 54.4146 44.5015 55.2665 43.286L55.4837 42.9745C55.6166 42.7855 55.7393 42.6017 55.8875 42.4127C56.2401 41.9199 56.603 41.4245 56.9685 40.9393C57.224 40.592 57.4796 40.2473 57.7556 39.9178C58.42 39.0666 59.1015 38.2154 59.8 37.3643C60.4986 36.5131 61.2244 35.6729 61.9774 34.8439C62.0796 34.7289 62.1818 34.6166 62.2892 34.5042L63.3804 33.3143C63.4341 33.2581 63.4801 33.207 63.5312 33.1559C63.6615 33.0155 63.7867 32.875 63.9273 32.7397C64.5125 32.1192 65.1131 31.5114 65.7162 30.9062C68.7856 27.8515 72.0554 25.0047 75.504 22.3849C75.6395 22.2776 75.7775 22.1755 75.9129 22.0733C76.562 21.5856 77.2214 21.103 77.8807 20.628C81.5073 18.0283 85.2983 15.6656 89.23 13.5546C89.5009 13.3988 89.7769 13.2532 90.0554 13.1102C93.5802 11.2469 97.2053 9.57944 100.914 8.11542C102.935 7.31614 105.003 6.56539 107.083 5.87847C108.468 5.42393 109.859 4.99237 111.267 4.58635C113.468 3.95306 115.684 3.38531 117.916 2.88311C124.492 1.40888 131.181 0.498199 137.911 0.16098C139.955 0.0571336 142.023 0.00350885 144.113 0.00010406C154.2 -0.0132395 164.248 1.25674 174.014 3.77942C174.114 3.93189 174.253 4.05619 174.415 4.14062C174.577 4.22505 174.758 4.26684 174.941 4.26205H175.8C176.173 4.36419 176.544 4.46633 176.917 4.57359C179 5.17283 181.054 5.8274 183.078 6.5373L183.589 6.72116C188.585 8.49614 193.445 10.6297 198.133 13.1051C202.359 15.3312 206.427 17.843 210.31 20.6229C210.908 21.0519 211.498 21.4843 212.079 21.9201C212.784 21.469 213.501 21.0366 214.231 20.6229C217.047 19.0204 220.037 17.7463 223.144 16.8257C229.64 14.905 236.513 14.6364 243.139 16.0443C251.636 17.8446 259.329 22.3134 265.541 28.6693C268.071 31.2698 270.322 34.1265 272.26 37.1932C272.4 37.4128 272.541 37.6349 272.676 37.8596C274.341 40.5738 275.773 43.4245 276.954 46.381C276.998 46.4908 277.041 46.5929 277.08 46.7002C278.171 49.4686 279.051 52.3154 279.712 55.2164C279.743 55.3645 279.778 55.5101 279.809 55.6582C280.427 58.4657 280.848 61.3131 281.066 64.1795C281.066 64.2817 281.066 64.3864 281.087 64.4936C281.194 65.9764 281.249 67.4745 281.25 68.9879C281.25 70.3413 281.204 71.6845 281.12 73.0175C281.12 73.163 281.1 73.3137 281.087 73.4644C281.064 73.85 281.031 74.2304 280.997 74.6186C282.949 76.1917 284.776 77.9138 286.461 79.7692C287.206 80.5812 287.926 81.4239 288.623 82.2972C290.746 84.9553 292.611 87.8085 294.194 90.8186C298.516 98.9696 301 108.558 301 118.821Z" fill="#76239D"/>
<path opacity="0.1" d="M272.122 180.217C272.122 181.961 266.109 183.596 255.616 185H57.1401C48.3095 185.019 39.6314 182.701 31.9882 178.282L31.8706 178.215C34.8862 177.117 40.3295 176.093 47.7381 175.169L48.0704 175.128C51.3926 174.722 55.1058 174.336 59.1641 173.971C59.2663 173.971 59.3711 173.956 59.4733 173.943C62.6933 173.657 66.1186 173.389 69.7492 173.139C69.8642 173.139 69.9767 173.118 70.0917 173.113C71.4921 173.013 72.9216 172.917 74.3799 172.827L74.9422 172.791C85.5605 172.133 97.6305 171.606 110.72 171.259H110.735C112.569 171.208 114.421 171.163 116.294 171.124C118.376 171.075 120.483 171.031 122.616 170.994C124.244 170.958 125.893 170.932 127.546 170.907H127.584C135.044 170.794 142.752 170.738 150.633 170.738C170.122 170.738 188.542 171.093 204.865 171.732H204.911C207.42 171.829 209.884 171.936 212.286 172.046L214.331 172.143C217.041 172.272 219.682 172.411 222.253 172.559C252.485 174.278 272.122 177.069 272.122 180.217Z" fill="#76239D"/>
<g opacity="0.2">
<path d="M173.85 169.566C173.842 169.841 173.811 170.116 173.756 170.386C171.977 170.103 170.188 169.848 168.389 169.62C168.389 169.548 168.389 169.474 168.389 169.4C168.406 168.634 168.626 167.887 169.028 167.235C169.554 166.402 170.354 165.881 171.236 165.909C172.118 165.937 172.882 166.507 173.355 167.367C173.712 168.043 173.883 168.802 173.85 169.566Z" fill="#3F3D56"/>
<path d="M173.997 165.203C174.06 163.228 172.887 161.588 171.377 161.541C169.868 161.493 168.594 163.055 168.531 165.03C168.469 167.005 169.642 168.645 171.151 168.692C172.661 168.74 173.935 167.178 173.997 165.203Z" fill="#3F3D56"/>
<path d="M174.137 160.831C174.199 158.856 173.026 157.216 171.517 157.169C170.007 157.121 168.733 158.683 168.67 160.658C168.608 162.633 169.781 164.273 171.29 164.32C172.8 164.368 174.074 162.806 174.137 160.831Z" fill="#3F3D56"/>
<path d="M174.273 156.459C174.336 154.484 173.163 152.845 171.653 152.797C170.144 152.749 168.87 154.312 168.807 156.287C168.745 158.261 169.918 159.901 171.427 159.949C172.937 159.996 174.211 158.434 174.273 156.459Z" fill="#3F3D56"/>
<path d="M174.41 152.087C174.473 150.112 173.3 148.473 171.79 148.425C170.281 148.377 169.007 149.94 168.944 151.914C168.882 153.889 170.055 155.529 171.564 155.577C173.074 155.624 174.348 154.062 174.41 152.087Z" fill="#3F3D56"/>
<path d="M162.376 121.753C162.016 121.266 161.691 120.754 161.405 120.221L168.627 119.268L160.853 119.082C160.159 117.438 159.808 115.669 159.822 113.885C159.835 112.1 160.213 110.337 160.932 108.704L171.185 114.437L161.793 107.072C162.741 105.541 163.994 104.222 165.474 103.196C166.955 102.171 168.632 101.461 170.399 101.112C172.166 100.763 173.987 100.782 175.747 101.168C177.506 101.553 179.168 102.297 180.627 103.353C182.086 104.409 183.311 105.755 184.227 107.305C185.142 108.856 185.728 110.578 185.947 112.365C186.166 114.152 186.015 115.964 185.501 117.69C184.988 119.416 184.124 121.017 182.963 122.394C183.523 123.151 183.999 123.967 184.382 124.827L174.903 129.373L184.954 126.352C185.587 128.439 185.689 130.65 185.251 132.787C184.813 134.923 183.848 136.916 182.445 138.586C183.904 140.564 184.777 142.913 184.963 145.364C185.149 147.814 184.641 150.268 183.498 152.444C182.354 154.62 180.621 156.43 178.496 157.668C176.371 158.906 173.941 159.521 171.483 159.444C169.024 159.366 166.637 158.599 164.595 157.23C162.552 155.861 160.937 153.945 159.932 151.701C158.928 149.458 158.576 146.977 158.917 144.543C159.257 142.109 160.276 139.82 161.857 137.937C160.114 135.573 159.216 132.692 159.309 129.757C159.402 126.821 160.479 124.003 162.368 121.753H162.376Z" fill="#76239D"/>
<path opacity="0.1" d="M185.511 130.583C185.422 133.52 184.341 136.34 182.445 138.586C183.904 140.564 184.777 142.913 184.963 145.364C185.149 147.814 184.641 150.268 183.498 152.444C182.354 154.62 180.621 156.43 178.496 157.668C176.371 158.906 173.941 159.521 171.483 159.444C169.024 159.366 166.637 158.599 164.595 157.23C162.552 155.861 160.937 153.945 159.932 151.701C158.928 149.458 158.576 146.977 158.917 144.543C159.257 142.109 160.276 139.82 161.857 137.937C160.178 135.657 185.557 129.115 185.511 130.583Z" fill="black"/>
</g>
<g opacity="0.2">
<path d="M135.006 169.566C134.998 169.841 134.966 170.116 134.911 170.386C133.132 170.103 131.344 169.848 129.544 169.62C129.544 169.548 129.544 169.474 129.544 169.4C129.561 168.634 129.782 167.887 130.183 167.235C130.71 166.402 131.51 165.881 132.391 165.909C133.273 165.937 134.037 166.507 134.51 167.367C134.867 168.043 135.039 168.802 135.006 169.566Z" fill="#3F3D56"/>
<path d="M135.15 165.204C135.212 163.229 134.039 161.589 132.53 161.542C131.02 161.494 129.746 163.056 129.683 165.031C129.621 167.006 130.794 168.646 132.303 168.693C133.813 168.741 135.087 167.179 135.15 165.204Z" fill="#3F3D56"/>
<path d="M135.289 160.832C135.351 158.857 134.178 157.217 132.669 157.17C131.16 157.122 129.885 158.684 129.823 160.659C129.76 162.634 130.933 164.274 132.443 164.321C133.952 164.369 135.227 162.807 135.289 160.832Z" fill="#3F3D56"/>
<path d="M135.426 156.46C135.488 154.485 134.315 152.846 132.806 152.798C131.297 152.75 130.022 154.313 129.96 156.287C129.897 158.262 131.07 159.902 132.58 159.95C134.089 159.997 135.363 158.435 135.426 156.46Z" fill="#3F3D56"/>
<path d="M135.563 152.088C135.625 150.113 134.452 148.474 132.943 148.426C131.433 148.378 130.159 149.941 130.096 151.915C130.034 153.89 131.207 155.53 132.716 155.578C134.226 155.625 135.5 154.063 135.563 152.088Z" fill="#3F3D56"/>
<path d="M123.531 121.753C123.171 121.266 122.847 120.754 122.56 120.221L129.782 119.268L122.008 119.082C121.314 117.438 120.963 115.669 120.977 113.885C120.991 112.1 121.368 110.337 122.087 108.704L132.34 114.437L122.948 107.072C123.896 105.541 125.149 104.222 126.63 103.196C128.111 102.171 129.787 101.461 131.554 101.112C133.322 100.763 135.142 100.782 136.902 101.168C138.662 101.553 140.323 102.297 141.782 103.353C143.241 104.409 144.467 105.755 145.382 107.305C146.298 108.856 146.883 110.578 147.102 112.365C147.322 114.152 147.17 115.964 146.657 117.69C146.143 119.416 145.279 121.017 144.119 122.394C144.679 123.151 145.154 123.967 145.537 124.827L136.058 129.373L146.11 126.352C146.743 128.439 146.845 130.65 146.406 132.787C145.968 134.923 145.004 136.916 143.6 138.586C145.059 140.564 145.932 142.913 146.118 145.364C146.304 147.814 145.797 150.268 144.653 152.444C143.509 154.62 141.776 156.43 139.651 157.668C137.527 158.906 135.096 159.521 132.638 159.444C130.179 159.366 127.793 158.599 125.75 157.23C123.707 155.861 122.092 153.945 121.088 151.701C120.084 149.458 119.732 146.977 120.072 144.543C120.412 142.109 121.431 139.82 123.012 137.937C121.269 135.573 120.371 132.692 120.464 129.757C120.557 126.821 121.634 124.003 123.523 121.753H123.531Z" fill="#76239D"/>
<path opacity="0.1" d="M146.667 130.583C146.577 133.52 145.496 136.34 143.6 138.586C145.059 140.564 145.932 142.913 146.118 145.364C146.304 147.814 145.797 150.268 144.653 152.444C143.509 154.62 141.776 156.43 139.651 157.668C137.527 158.906 135.096 159.521 132.638 159.444C130.179 159.366 127.793 158.599 125.75 157.23C123.707 155.861 122.092 153.945 121.088 151.701C120.084 149.458 119.732 146.977 120.072 144.543C120.412 142.109 121.431 139.82 123.012 137.937C121.333 135.657 146.713 129.115 146.667 130.583Z" fill="black"/>
</g>
<g opacity="0.2">
<path d="M241.113 172.36C241.093 172.882 241.031 173.401 240.926 173.912C237.502 173.366 234.053 172.877 230.579 172.447C230.579 172.309 230.579 172.168 230.579 172.025C230.611 170.551 231.036 169.111 231.811 167.855C232.833 166.254 234.366 165.251 236.061 165.302C237.755 165.353 239.229 166.453 240.149 168.111C240.843 169.416 241.176 170.883 241.113 172.36Z" fill="#3F3D56"/>
<path d="M241.391 163.952C241.511 160.149 239.252 156.992 236.344 156.9C233.437 156.808 230.982 159.817 230.862 163.62C230.742 167.423 233.001 170.58 235.909 170.672C238.816 170.764 241.271 167.755 241.391 163.952Z" fill="#3F3D56"/>
<path d="M241.656 155.536C241.777 151.733 239.517 148.575 236.61 148.483C233.702 148.391 231.248 151.4 231.128 155.203C231.007 159.006 233.267 162.164 236.174 162.256C239.082 162.347 241.536 159.339 241.656 155.536Z" fill="#3F3D56"/>
<path d="M241.925 147.119C242.045 143.316 239.786 140.159 236.878 140.067C233.971 139.975 231.516 142.984 231.396 146.787C231.276 150.59 233.535 153.747 236.443 153.839C239.35 153.931 241.805 150.922 241.925 147.119Z" fill="#3F3D56"/>
<path d="M241.891 138.319C242.005 134.514 239.74 131.359 236.831 131.272C233.922 131.185 231.471 134.198 231.357 138.003C231.243 141.808 233.508 144.964 236.417 145.051C239.326 145.138 241.777 142.124 241.891 138.319Z" fill="#3F3D56"/>
<path d="M219.02 80.3129C218.33 79.3755 217.706 78.3918 217.152 77.3687L231.054 75.5352L216.091 75.1751C214.755 72.0099 214.079 68.6055 214.104 65.1702C214.13 61.7349 214.856 58.3409 216.24 55.1958L235.981 66.2299L217.903 52.0524C219.731 49.1116 222.146 46.5786 224.996 44.6112C227.847 42.6437 231.072 41.284 234.472 40.6168C237.871 39.9495 241.372 39.989 244.755 40.7329C248.139 41.4767 251.333 42.9089 254.138 44.9402C256.943 46.9715 259.3 49.5584 261.061 52.5396C262.822 55.5208 263.949 58.8325 264.373 62.2683C264.797 65.704 264.509 69.1902 263.525 72.5096C262.542 75.8289 260.884 78.9103 258.657 81.5617C259.733 83.0209 260.649 84.5919 261.389 86.2475L243.139 95.0037L262.488 89.1816C263.707 93.1944 263.906 97.4477 263.065 101.556C262.225 105.665 260.373 109.5 257.676 112.713C260.484 116.522 262.164 121.043 262.522 125.761C262.88 130.478 261.902 135.201 259.701 139.39C257.499 143.578 254.162 147.063 250.072 149.446C245.982 151.828 241.303 153.013 236.571 152.864C231.838 152.715 227.243 151.238 223.311 148.603C219.379 145.967 216.269 142.279 214.336 137.96C212.403 133.642 211.725 128.867 212.379 124.181C213.034 119.495 214.995 115.089 218.039 111.464C214.684 106.913 212.957 101.367 213.135 95.7177C213.313 90.068 215.386 84.642 219.02 80.3104V80.3129Z" fill="#76239D"/>
<path opacity="0.1" d="M263.564 97.3095C263.396 102.96 261.325 108.389 257.686 112.718C260.495 116.527 262.174 121.048 262.532 125.766C262.89 130.483 261.913 135.206 259.711 139.395C257.509 143.583 254.173 147.068 250.082 149.451C245.992 151.833 241.313 153.018 236.581 152.869C231.848 152.72 227.254 151.243 223.322 148.608C219.39 145.972 216.279 142.284 214.346 137.965C212.413 133.647 211.735 128.872 212.39 124.186C213.045 119.5 215.006 115.094 218.049 111.469C214.793 107.074 263.653 94.4827 263.564 97.3095Z" fill="black"/>
</g>
<path d="M40.332 172.809L43.0128 172.802H46.7925L51.5714 95.2287L98.898 16.315L96.8408 14.1087V8.52148L45.6578 93.4003L40.332 172.809Z" fill="#F1C0C0"/>
<path opacity="0.1" d="M43.2991 172.801H46.7925L51.5715 95.2283L98.898 16.3147L96.8408 14.1084L48.0243 94.046L43.2991 172.801Z" fill="black"/>
<path d="M32.4326 173.455L155.062 182.832L155.166 182.84L273.844 175.546L273.934 175.541V170.534L143.165 168.136L34.0656 168.031H33.2683L33.1814 168.593L32.4326 173.455Z" fill="#F1C0C0"/>
<path opacity="0.1" d="M32.4326 173.455L155.062 182.832L155.166 182.84L273.844 175.546L273.934 175.449V170.638H273.829L155.062 174.602L34.0656 168.031H34.0477L33.8331 168.172L33.1814 168.593L32.4326 173.455Z" fill="black"/>
<path opacity="0.1" d="M32.4326 173.455L155.062 182.832V174.602L33.8331 168.172L33.1814 168.593L32.4326 173.455Z" fill="black"/>
<path d="M96.8254 14.0039L150.888 71.9857L149.217 173.976L153.81 174.53L153.886 174.541H158.479L159.028 76.3652L260.262 110.154L261.969 170.317L265.664 170.731L266.916 170.871L264.018 105.982L158.192 68.8576L100.166 8.58008H96.8254V14.0039Z" fill="#F1C0C0"/>
<path opacity="0.1" d="M158.611 74.4883L159.028 76.3652L260.262 110.154L261.969 170.317L265.664 170.731L262.766 108.903L158.611 74.4883Z" fill="black"/>
<path opacity="0.1" d="M96.8254 14.0039L150.888 71.9857L149.217 173.976L153.81 174.53L155.062 68.6482L96.8254 8.58008V14.0039Z" fill="black"/>
<path d="M158.808 115.42L195.938 122.726L195.951 122.728L260.982 135.529L263.96 134.337L263.949 134.128L263.755 129.978L158.846 108.796L158.808 115.42Z" fill="#F1C0C0"/>
<path opacity="0.1" d="M195.951 122.728L260.982 135.529L263.959 134.337L263.949 134.127L195.951 122.728Z" fill="black"/>
<path d="M198.437 89.5186L199.442 144.763L199.96 173.105L204.532 172.952L207.41 172.855L206.515 90.3178L204.532 89.659L204.098 89.5186H198.437Z" fill="#F1C0C0"/>
<path opacity="0.1" d="M198.478 89.5059V89.5186L199.442 144.763L199.96 173.105L204.532 172.952V89.5059H198.478Z" fill="black"/>
<path d="M126.823 103.627C127.091 103.773 127.347 103.939 127.589 104.125C127.876 104.376 128.133 104.657 128.356 104.965C129.452 106.383 130.464 108.03 130.357 109.817C130.359 110.077 130.31 110.335 130.212 110.576C130.115 110.817 129.97 111.037 129.787 111.222C129.335 111.607 128.686 111.625 128.093 111.625C127.449 111.625 126.772 111.625 126.214 111.293C125.657 110.961 125.192 110.315 124.533 110.33C124.44 110.346 124.345 110.346 124.252 110.33C124.024 110.256 123.978 109.958 123.83 109.769C123.575 109.429 123.035 109.513 122.634 109.661C122.233 109.81 121.788 110.032 121.392 109.861C121.162 109.739 120.974 109.552 120.853 109.322C119.905 107.79 119.703 105.948 119.524 104.169C119.414 103.086 118.576 99.3934 120.889 100.234C121.911 100.601 122.867 101.337 123.797 101.876L126.823 103.627Z" fill="#3F3D56"/>
<path d="M124.538 103.992C124.745 104.141 124.995 104.216 125.249 104.206C125.503 104.196 125.747 104.101 125.941 103.936C126.322 103.593 126.564 103.122 126.623 102.613C126.879 102.534 127.009 102.869 127.173 103.073C127.459 103.42 128.042 103.415 128.302 103.786C128.484 104.041 128.443 104.396 128.571 104.684C128.737 105.057 129.148 105.251 129.429 105.553C129.695 105.882 129.887 106.264 129.992 106.674L130.411 107.93C130.611 108.453 130.74 109 130.794 109.557C130.82 109.835 130.791 110.116 130.708 110.383C130.624 110.65 130.489 110.898 130.308 111.112C129.746 111.717 128.824 111.781 128.008 111.763C127.736 111.769 127.464 111.737 127.201 111.668C126.478 111.444 126.015 110.716 125.823 109.983C125.632 109.25 125.652 108.482 125.54 107.731C125.418 106.993 125.204 106.274 124.901 105.591C124.676 105.06 124.058 104.268 124.068 103.704C124.252 103.704 124.385 103.872 124.538 103.992Z" fill="#3F3D56"/>
<path d="M125.456 101.406C125.336 101.043 125.266 100.666 125.249 100.285C125.249 99.5187 125.599 98.7986 125.951 98.1143L123.03 98.5101C122.678 98.5586 122.284 98.6301 122.085 98.9237C122.009 99.0693 121.969 99.2309 121.969 99.3949C121.969 99.5589 122.009 99.7205 122.085 99.866C122.231 100.157 122.348 100.463 122.432 100.778C122.439 101.053 122.471 101.328 122.527 101.597C122.618 101.796 122.745 101.975 122.903 102.126C123.738 103.05 124.364 104.141 124.988 105.221C124.97 105.19 126.749 103.814 126.677 103.364C126.636 103.109 126.123 102.803 125.959 102.558C125.733 102.202 125.563 101.813 125.456 101.406Z" fill="#BE6F72"/>
<path d="M150.5 91.4287V93.944L107.395 102.345L105.159 103.699H97.4438V102.281L139.795 92.0569L150.5 91.4287Z" fill="#F1C0C0"/>
<path opacity="0.1" d="M150.5 93.9438L107.395 102.345L105.159 103.699H97.4438L140.109 94.5746L150.5 93.9438Z" fill="black"/>
<path d="M115.893 162.832C115.412 162.251 114.749 161.849 114.011 161.693C113.274 161.536 112.505 161.633 111.829 161.969C111.685 162.037 111.557 162.136 111.456 162.26C111.201 162.618 111.364 163.11 111.387 163.552C111.446 164.63 110.587 165.506 109.815 166.259C109.401 166.663 108.98 167.094 108.793 167.643C108.607 168.192 108.745 168.889 109.246 169.175C109.464 169.285 109.702 169.351 109.946 169.369C110.763 169.529 111.6 169.552 112.425 169.438C113.24 169.282 114.04 168.82 114.392 168.07C114.46 167.866 114.573 167.68 114.722 167.526C115.172 167.171 115.862 167.587 116.373 167.334C116.795 167.125 116.813 166.795 116.818 166.361C116.833 165.161 116.654 163.802 115.893 162.832Z" fill="#76239D"/>
<path d="M122.026 162.786C122.34 163.614 122.384 164.515 122.425 165.399C122.448 165.909 122.463 166.456 122.187 166.887C121.911 167.319 121.372 167.546 120.855 167.654C119.79 167.873 118.555 167.666 117.868 166.821C117.342 166.175 117.232 165.289 117.329 164.451C117.411 163.764 117.584 162.96 117.091 162.472C116.963 162.342 116.797 162.25 116.68 162.11C116.424 161.798 116.465 161.328 116.603 160.945C116.783 160.579 116.917 160.192 117.004 159.794C117.025 159.605 120.464 159.926 120.781 160.082C121.213 160.294 121.147 160.649 121.277 161.078C121.459 161.676 121.806 162.214 122.026 162.786Z" fill="#76239D"/>
<path d="M122.657 126.101C123.332 126.538 123.592 127.396 123.697 128.193C123.986 130.376 123.48 132.582 123.442 134.786C123.406 137.873 124.3 141.017 123.536 144.007C123.079 145.795 123.467 147.838 123.038 149.643C122.91 150.179 122.675 150.685 122.552 151.221C122.297 152.383 122.565 153.598 122.925 154.735C123.04 155.041 123.114 155.361 123.143 155.687C123.125 156.189 122.998 156.681 122.77 157.127L121.236 160.751C121.065 161.157 120.39 161.223 119.958 161.277C119.146 161.374 118.239 161.443 117.592 160.94C116.945 160.437 116.79 159.594 116.69 158.808C116.499 157.298 116.413 155.776 116.434 154.255C116.462 153.858 116.427 153.458 116.33 153.072C116.189 152.636 115.88 152.258 115.795 151.796C115.688 151.198 115.992 150.611 116.105 150.008C116.182 149.458 116.173 148.899 116.079 148.351C115.979 147.534 115.864 146.716 115.734 145.904C115.55 144.768 115.813 143.647 115.99 142.508C116.156 141.438 115.944 140.348 115.734 139.286C115.752 140.148 115.645 141.008 115.415 141.839C115.279 142.245 115.085 142.633 114.967 143.047C114.444 144.903 115.56 146.852 115.402 148.775C115.328 149.674 114.975 150.562 115.075 151.448C115.144 152.097 115.445 152.692 115.652 153.31C115.859 153.928 115.967 154.635 115.652 155.212C114.822 156.78 115.443 158.912 116.186 160.521C116.337 160.807 116.469 161.102 116.58 161.405C116.8 162.13 116.616 162.909 116.675 163.665C116.46 163.7 116.241 163.685 116.034 163.623C115.826 163.561 115.635 163.452 115.476 163.305C115.364 163.187 115.272 163.049 115.162 162.927C114.855 162.634 114.491 162.408 114.093 162.26C113.86 162.13 113.594 162.068 113.327 162.084C113.046 162.162 112.793 162.319 112.598 162.536C112.346 162.758 112.077 162.962 111.796 163.146C111.676 163.238 111.536 163.301 111.387 163.328C111.312 163.339 111.236 163.327 111.168 163.292C111.101 163.258 111.046 163.203 111.011 163.136C110.995 163.093 110.986 163.049 110.983 163.003C110.888 162.232 110.838 161.456 110.832 160.68C110.832 159.344 109.233 158.425 109.031 157.104C108.87 156.04 109.169 154.954 109.069 153.882C109.021 153.33 108.867 152.789 108.877 152.237C108.877 151.88 108.959 151.53 108.987 151.175C109.011 150.781 109.005 150.386 108.969 149.993L108.89 148.759C108.814 147.541 108.729 146.298 108.249 145.184C107.679 143.884 107.342 142.495 107.252 141.078C107.201 140.184 107.234 139.291 107.132 138.394C107.04 137.585 106.836 136.78 106.894 135.968C106.943 135.34 107.15 134.732 107.198 134.104C107.298 132.896 106.838 131.722 106.478 130.565C106.117 129.408 105.852 128.126 106.324 127.01C106.392 126.827 106.504 126.664 106.652 126.535C106.833 126.416 107.039 126.339 107.255 126.311C111.639 125.39 116.134 125.104 120.6 125.46C121.328 125.502 122.035 125.722 122.657 126.101Z" fill="#3F3D56"/>
<path d="M108.149 98.9796C110.41 98.9796 112.243 97.148 112.243 94.8887C112.243 92.6294 110.41 90.7979 108.149 90.7979C105.888 90.7979 104.055 92.6294 104.055 94.8887C104.055 97.148 105.888 98.9796 108.149 98.9796Z" fill="#BE6F72"/>
<path d="M107.357 99.9984C107.416 100.232 107.416 100.477 107.357 100.711C107.293 100.874 107.202 101.026 107.089 101.16C106.692 101.671 106.254 102.148 105.778 102.585C106.02 103.127 106.457 103.557 107.002 103.793C107.543 104.023 108.11 104.185 108.691 104.276C108.981 104.352 109.283 104.373 109.58 104.337C109.855 104.268 110.114 104.15 110.347 103.99L112.621 102.629C112.965 102.443 113.282 102.214 113.567 101.947C113.984 101.518 114.22 100.946 114.226 100.348C114.237 100.241 114.208 100.134 114.145 100.047C114.057 99.9711 113.948 99.9254 113.833 99.9167C113.033 99.7405 112.402 99.0919 112.044 98.3564C111.72 97.6025 111.511 96.8047 111.423 95.9893L108.998 97.2661C108.637 97.4576 108.279 97.6491 107.906 97.8151C107.669 97.9223 107.188 98.0117 107.02 98.2288C106.698 98.6297 107.273 99.5158 107.357 99.9984Z" fill="#BE6F72"/>
<path d="M105.793 101.842C105.448 102.125 105.178 102.489 105.008 102.902C104.85 103.413 105.008 103.951 105.152 104.457C105.822 106.612 106.335 108.813 106.685 111.043C106.9 112.575 106.979 114.13 107.084 115.68C107.298 118.841 107.61 123.882 108.027 127.023C109.56 127.092 111.055 126.645 112.575 126.482C115.417 126.18 118.343 126.87 121.126 126.226C120.452 123.563 119.777 119.015 119.102 116.354C118.804 115.306 118.597 114.234 118.484 113.149C118.425 112.371 118.461 111.589 118.471 110.805C118.494 109.273 118.41 107.741 118.325 106.209C118.228 104.421 118.131 102.634 117.707 100.885C117.677 100.662 117.573 100.455 117.411 100.3C117.155 100.113 116.823 100.18 116.519 100.221C115.588 100.339 114.645 100.116 113.866 99.5925C113.529 99.3626 113.076 99.0818 112.762 99.3371C112.628 99.4911 112.539 99.6795 112.506 99.881C112.367 100.242 112.153 100.57 111.877 100.841C111.601 101.113 111.27 101.323 110.907 101.457C110.178 101.72 109.416 101.877 108.642 101.921C108.406 101.972 108.159 101.944 107.94 101.842C107.577 101.62 107.551 100.821 107.094 100.767C106.693 100.721 106.064 101.584 105.793 101.842Z" fill="#3F3D56"/>
<path d="M111.839 108.078C110.896 107.177 110.482 105.869 109.795 104.758C109.327 104.012 108.729 103.354 108.029 102.818C107.677 102.586 107.355 102.312 107.068 102.003C106.825 101.704 106.641 101.306 106.273 101.191C106.121 101.158 105.963 101.162 105.813 101.204C105.663 101.245 105.526 101.322 105.412 101.429C105.187 101.643 104.973 101.87 104.773 102.108C103.69 103.229 101.786 103.385 100.927 104.682C100.695 104.957 100.538 105.287 100.47 105.639C100.222 107.528 100.711 109.438 101.834 110.976C102.052 111.333 102.386 111.604 102.78 111.743C102.726 112.219 102.789 112.701 102.964 113.147C103.437 114.763 104.018 116.346 104.704 117.884C104.54 118.486 104.426 119.1 104.362 119.72C104.183 121.28 104.349 122.863 104.18 124.426C104.042 125.703 103.669 126.947 103.656 128.226C103.656 128.43 103.674 128.673 103.851 128.778C103.944 128.826 104.049 128.848 104.155 128.841L107.298 128.936C109.123 128.99 110.965 129.043 112.762 128.706C113.001 128.671 113.233 128.597 113.449 128.489C114.057 128.149 114.259 127.383 114.356 126.702C114.483 125.817 114.534 124.923 114.507 124.03C114.888 125.233 115.34 126.477 116.49 126.998C117.099 127.274 117.794 127.253 118.461 127.235C119.898 127.171 121.331 127.024 122.752 126.793C122.839 126.804 122.928 126.795 123.011 126.765C123.094 126.735 123.169 126.687 123.23 126.623C123.291 126.559 123.336 126.482 123.362 126.398C123.387 126.313 123.393 126.224 123.378 126.137L123.393 124.743C123.424 121.911 122.721 119.204 122.447 116.385C122.361 115.496 122.368 114.597 122.151 113.727C122.062 113.362 121.931 113.004 121.852 112.636C121.784 112.276 121.741 111.912 121.724 111.546L121.525 108.737C121.43 107.437 121.295 106.183 121.195 104.886C121.14 103.623 120.957 102.369 120.648 101.143C120.426 100.377 119.963 99.5083 119.164 99.4138C118.737 99.3653 118.323 99.5517 117.916 99.682C116.918 99.9961 115.846 99.9917 114.85 99.6692C114.542 99.5478 114.221 99.4621 113.894 99.4138C113.729 99.3914 113.561 99.4132 113.408 99.4769C113.254 99.5406 113.12 99.644 113.02 99.7764C112.921 99.9759 112.874 100.197 112.884 100.42C112.764 102.971 112.542 105.599 111.839 108.078Z" fill="#76239D"/>
<path d="M107.728 108.155C106.549 106.914 105.341 105.65 103.823 104.861C103.225 104.549 102.545 104.314 101.883 104.432C101.221 104.549 100.605 105.124 100.636 105.795C100.656 106.212 100.909 106.579 100.989 106.988C101.081 107.447 100.948 107.938 101.091 108.382C101.207 108.675 101.381 108.941 101.602 109.166L103.411 111.308C104.178 112.202 104.945 113.109 105.931 113.727C106.917 114.345 108.195 114.633 109.279 114.194C110.05 113.836 110.691 113.248 111.114 112.511C111.563 111.796 111.88 111.015 112.302 110.277C112.958 109.098 113.824 108.048 114.858 107.179C114.326 107.041 113.659 106.847 113.324 106.413C113.229 106.275 113.148 106.128 113.081 105.974L112.667 105.08C112.527 105.073 112.386 105.095 112.254 105.144C112.122 105.194 112.002 105.271 111.901 105.369C111.723 105.574 111.533 105.767 111.331 105.949C110.971 106.219 110.482 106.293 110.155 106.602C110.029 106.735 109.914 106.878 109.813 107.031C109.566 107.356 109.251 107.625 108.892 107.818C108.532 108.012 108.135 108.127 107.728 108.155Z" fill="#3F3D56"/>
<path d="M114.952 102.815C115.839 101.199 115.798 99.2608 116.051 97.435C116.078 96.9515 116.248 96.4869 116.539 96.0995C117.05 95.5224 117.952 95.5147 118.724 95.5888C118.951 95.6143 119.235 95.7216 119.222 95.9488C119.204 96.0303 119.165 96.1053 119.107 96.1659C118.359 97.1306 117.919 98.2981 117.845 99.5162C118.246 99.7945 118.867 99.2225 119.253 99.5162C119.509 99.7307 119.391 100.155 119.238 100.461C118.882 101.171 118.514 101.876 118.136 102.575C117.834 103.192 117.441 103.76 116.968 104.258C116.644 104.57 116.263 104.815 115.933 105.121C115.167 105.839 114.704 106.853 113.912 107.552C113.845 107.625 113.754 107.671 113.656 107.683C113.555 107.675 113.46 107.633 113.388 107.563C112.992 107.241 112.664 106.844 112.422 106.396C112.12 105.839 112.166 105.675 112.642 105.282C113.531 104.58 114.397 103.827 114.952 102.815Z" fill="#BE6F72"/>
<path d="M106.245 107.057C106.399 107.151 106.588 107.258 106.756 107.179C106.825 107.138 106.884 107.081 106.928 107.013C107.22 106.624 107.463 106.2 107.653 105.752C107.686 105.688 107.704 105.619 107.707 105.547C107.707 105.384 107.561 105.264 107.426 105.169C106.7 104.707 105.92 104.337 105.103 104.066C104.428 103.811 103.723 103.589 103.007 103.653C102.738 103.671 102.476 103.743 102.236 103.865C101.996 103.987 101.783 104.156 101.609 104.363C101.098 105.019 101.954 105.218 102.491 105.456C103.733 106.02 105.077 106.347 106.245 107.057Z" fill="#76239D"/>
<path opacity="0.1" d="M105.44 111.398C105.432 111.456 105.437 111.516 105.456 111.572C105.474 111.627 105.506 111.678 105.548 111.72C105.622 111.357 105.525 110.974 105.601 110.609C105.714 110.06 106.248 109.646 106.294 109.095C105.315 108.903 105.448 110.805 105.44 111.398Z" fill="black"/>
<path opacity="0.2" d="M150.5 91.4287V93.944L140.109 94.5747L139.795 92.0569L150.5 91.4287Z" fill="black"/>
<path d="M104.464 95.4968C105.113 94.9682 104.737 93.86 105.177 93.1501C105.433 92.7619 105.864 92.5576 106.289 92.384C106.801 92.1446 107.349 91.9927 107.911 91.9346C108.193 91.9075 108.477 91.9442 108.743 92.0419C109.008 92.1396 109.248 92.2958 109.445 92.4989C109.611 92.6879 109.723 92.9177 109.879 93.1143C110.072 93.3437 110.324 93.5166 110.607 93.6146C110.891 93.7126 111.196 93.7321 111.489 93.671C111.829 93.5944 112.182 93.3365 112.159 92.9892C112.12 92.778 112.012 92.5856 111.852 92.4427L111.121 91.6332C110.291 90.7139 109.368 89.7385 108.149 89.5086C107.301 89.3478 106.432 89.575 105.614 89.8483C105.284 89.9581 104.914 90.1215 104.822 90.456C104.76 90.6859 104.852 90.9361 104.799 91.1685C104.694 91.6307 104.101 91.7865 103.825 92.1746C103.549 92.5627 103.633 93.0224 103.554 93.4514C103.475 93.8804 103.245 94.2992 103.217 94.7435C103.199 95.0116 103.334 95.5096 103.636 95.6066C103.938 95.7037 104.277 95.1776 104.464 95.4968Z" fill="#3F3D56"/>
<path d="M111.911 92.6214C111.695 91.4979 111.231 90.4368 110.551 89.5162C109.947 88.656 109.107 87.9891 108.131 87.5959C107.644 87.4055 107.119 87.328 106.597 87.3691C106.076 87.4103 105.57 87.569 105.118 87.8334C104.448 88.3116 103.926 88.9693 103.613 89.7307C102.951 91.1556 102.706 92.8972 103.475 94.2659C103.782 93.8931 104.308 94.0616 104.773 93.9263C105.356 93.7603 105.849 93.3721 106.404 93.1295C108.078 92.3915 110.122 92.9891 111.911 92.6214Z" fill="#FED253"/>
<path opacity="0.1" d="M103.866 92.5423C103.807 92.0826 103.769 91.5489 104.096 91.2221C104.112 91.202 104.133 91.1861 104.156 91.1754C104.18 91.1648 104.206 91.1598 104.231 91.1608C104.254 91.1682 104.275 91.1801 104.293 91.1959C104.311 91.2118 104.326 91.2311 104.336 91.2527C104.525 91.5505 104.686 91.865 104.817 92.1924C104.626 92.1486 104.427 92.1628 104.245 92.2334C104.062 92.304 103.906 92.4276 103.794 92.5882" fill="black"/>
<path opacity="0.1" d="M109.838 91.2449L109.746 90.3333C109.732 90.2582 109.738 90.1804 109.764 90.1086C109.803 90.0484 109.862 90.0047 109.931 89.9858C110 89.967 110.074 89.9743 110.137 90.0064C110.263 90.076 110.367 90.1796 110.436 90.3052C110.649 90.6315 110.826 90.98 110.963 91.3445C110.551 91.2653 110.128 91.2705 109.718 91.3598" fill="black"/>
<path opacity="0.1" d="M112.126 128.244V130.328L110.365 130.445H101.104V128.244H112.126Z" fill="black"/>
<path d="M112.126 128.244V130.445H101.103L71.8218 93.7933V92.062H77.9603L112.126 128.244Z" fill="#F1C0C0"/>
<path opacity="0.1" d="M112.126 128.244V130.445H101.103L71.8218 93.7933V92.062H77.9603L112.126 128.244Z" fill="black"/>
<path opacity="0.1" d="M112.126 128.244V130.445H101.103L71.8218 93.7933V92.062L101.262 128.244H112.126Z" fill="black"/>
<path d="M75.6601 164.98C75.6793 165.084 75.677 165.19 75.6533 165.293C75.6295 165.395 75.5848 165.492 75.5219 165.577C75.4591 165.661 75.3795 165.732 75.288 165.784C75.1966 165.837 75.0953 165.87 74.9905 165.881C74.2801 166.121 73.5262 166.359 73.0227 166.903C72.5193 167.447 72.4196 168.455 73.0227 168.897C73.331 169.083 73.685 169.179 74.045 169.176C75.2026 169.255 76.4089 169.239 77.4592 168.749C78.2105 168.402 78.9184 167.809 79.7439 167.863C80.1707 167.888 80.6256 168.088 81.0063 167.894C81.3871 167.7 81.4944 167.158 81.497 166.706C81.5067 165.763 81.3643 164.824 81.0753 163.925C81.037 163.803 79.4117 163.708 79.2174 163.67L77.2471 163.415C76.874 163.366 76.069 163.085 75.7751 163.397C75.4812 163.708 75.6601 164.61 75.6601 164.98Z" fill="#76239D"/>
<path d="M87.4184 158.606C87.5018 159.066 87.6373 159.515 87.8222 159.944C88.0956 160.639 88.4458 161.377 89.1153 161.714C89.7235 162.018 90.4698 161.908 91.0882 161.619C91.3463 161.512 91.5725 161.341 91.745 161.121C91.9445 160.774 92.0336 160.374 92.0006 159.975C92.0006 158.987 91.9418 157.965 91.4894 157.087C91.101 156.321 90.4238 155.662 90.4136 154.814L88.0854 155.263C87.9608 155.275 87.8421 155.322 87.743 155.399C87.6692 155.476 87.618 155.573 87.5948 155.677C87.3462 156.633 87.2863 157.628 87.4184 158.606Z" fill="#76239D"/>
<path d="M59.6164 134.347C59.5193 135.169 59.5602 136.05 59.9895 136.76C60.4188 137.47 61.3235 137.94 62.1055 137.657C62.1456 137.646 62.1832 137.628 62.2161 137.603C62.249 137.578 62.2766 137.547 62.2972 137.511C62.318 137.425 62.3061 137.334 62.2639 137.256C61.9187 136.335 61.9471 135.316 62.3432 134.416C62.3943 134.299 62.5042 134.161 62.6243 134.207C62.6745 134.232 62.7149 134.273 62.7393 134.324C62.863 134.538 62.9249 134.782 62.9182 135.029C62.8821 135.253 62.8752 135.48 62.8977 135.706C62.9463 135.925 63.1814 136.132 63.3858 136.038C63.4449 136.001 63.496 135.954 63.536 135.897C63.576 135.84 63.604 135.776 63.6184 135.708C64.1883 134.061 63.9302 132.261 63.6695 130.537C63.6717 130.498 63.6651 130.458 63.6503 130.421C63.6355 130.385 63.6128 130.351 63.5838 130.324C63.5548 130.297 63.5202 130.277 63.4825 130.265C63.4447 130.253 63.4048 130.249 63.3654 130.254C62.1592 130.134 61.4998 129.845 60.8098 130.966C60.2169 131.911 59.6164 133.211 59.6164 134.347Z" fill="#76239D"/>
<path d="M73.7179 130.157C73.3601 131.643 72.9998 133.147 72.9768 134.674C72.9831 135.625 73.0548 136.575 73.1915 137.516L73.4598 139.727C73.5518 140.473 73.6413 141.216 73.7716 141.954C73.8547 142.334 73.9001 142.722 73.907 143.111C73.882 143.495 73.8212 143.875 73.7256 144.247C73.5649 145.029 73.4751 145.824 73.4573 146.622C73.4291 147.899 73.5876 149.176 73.6873 150.453C73.8862 152.997 73.8563 155.554 73.5978 158.093C73.4946 158.778 73.6435 159.478 74.0169 160.062C74.1684 160.246 74.2932 160.45 74.3875 160.669C74.5792 161.254 74.1319 161.839 74.0169 162.439C73.9434 162.907 74.0587 163.385 74.3376 163.768C74.6164 164.151 75.0361 164.408 75.5043 164.482C77.5487 164.725 79.6494 164.615 81.492 165.549C81.6862 164.982 81.262 164.339 81.4562 163.762C81.5788 163.404 81.9162 163.172 82.1462 162.871C82.4552 162.412 82.6092 161.866 82.5857 161.313C82.5948 160.591 82.4664 159.875 82.2075 159.201C81.9903 158.639 81.6785 158.085 81.6964 157.483C81.6964 157.186 81.8012 156.875 81.6811 156.602C81.5987 156.445 81.4868 156.305 81.3514 156.19C80.5876 155.354 80.1183 154.292 80.0148 153.164C79.9152 152.046 79.9512 150.919 80.1222 149.809C80.2474 148.752 80.4161 147.636 81.0882 146.811C80.7765 144.31 80.9597 141.772 81.6274 139.342C81.6939 139.117 81.7986 138.857 82.0286 138.803C82.12 138.794 82.2123 138.806 82.2977 138.84C82.3831 138.874 82.4591 138.928 82.5193 138.997C82.9205 139.373 83.1122 139.916 83.286 140.437C83.4776 141.002 83.6719 141.604 83.5262 142.181C83.4649 142.437 83.3422 142.662 83.2706 142.907C83.1152 143.399 83.1424 143.931 83.3473 144.406C83.4472 144.579 83.5099 144.771 83.5313 144.97C83.5076 145.141 83.4558 145.306 83.378 145.46C83.2832 145.762 83.2531 146.081 83.2896 146.396C83.3262 146.71 83.4285 147.014 83.5901 147.286C83.9158 147.828 84.3177 148.321 84.7835 148.749C84.561 149.729 84.6185 150.752 84.9496 151.701C84.9735 151.744 84.9888 151.791 84.9945 151.84C85.0002 151.888 84.9962 151.938 84.9829 151.985C84.9369 152.082 84.8193 152.118 84.7273 152.186C84.4718 152.396 84.6302 152.792 84.8014 153.065C85.2707 153.815 85.7889 154.533 86.3527 155.215C86.8638 155.825 86.8178 157.003 87.5793 157.222C87.8993 157.291 88.2304 157.291 88.5504 157.222C89.3018 157.107 90.14 156.89 90.508 156.226C90.6588 155.953 90.7201 155.621 90.9552 155.417C91.1903 155.212 91.4945 155.177 91.6248 154.932C91.7551 154.686 91.6095 154.365 91.6529 154.081C91.6964 153.798 91.9442 153.57 92.0235 153.272C92.2126 152.582 91.4076 152.015 91.2977 151.311C91.1392 150.289 92.4272 149.523 92.3736 148.502C92.2611 146.283 92.1896 144.053 92.0746 141.834C91.9302 139.846 91.9098 137.852 92.0132 135.861C92.1027 134.623 92.2688 133.326 91.8139 132.174C91.1597 130.55 89.3554 129.638 87.61 129.465C85.8645 129.291 84.1242 129.705 82.3941 129.975C79.5227 130.418 76.6053 130.478 73.7179 130.157Z" fill="#3F3D56"/>
<path d="M78.9058 105.749C81.1669 105.749 82.9998 103.918 82.9998 101.658C82.9998 99.3989 81.1669 97.5674 78.9058 97.5674C76.6447 97.5674 74.8118 99.3989 74.8118 101.658C74.8118 103.918 76.6447 105.749 78.9058 105.749Z" fill="#FBBEBE"/>
<path d="M77.2395 106.513C77.1004 106.837 76.8666 107.111 76.5687 107.299C76.2708 107.487 75.9229 107.581 75.5707 107.568C75.4225 108.18 75.7777 108.798 76.1841 109.281C77.0278 110.262 78.1182 111.001 79.3428 111.42C80.5673 111.84 81.8818 111.926 83.1505 111.669C83.6443 111.58 84.1127 111.385 84.5229 111.097C85.0759 110.635 85.4471 109.993 85.5707 109.284C85.6883 108.579 85.7217 107.864 85.6703 107.151C85.6847 107.011 85.6444 106.87 85.5579 106.758C85.4557 106.679 85.3293 106.638 85.2001 106.641C84.3363 106.564 83.4342 106.531 82.6752 106.107C81.9162 105.683 81.377 104.725 81.7424 103.939C81.6836 104.062 80.1912 104.12 79.9944 104.146C79.3785 104.233 78.7626 104.33 78.1493 104.442C77.8546 104.458 77.5633 104.513 77.2829 104.605C76.9124 104.797 77.0504 104.702 77.1373 105.05C77.2676 105.581 77.4593 105.961 77.2395 106.513Z" fill="#FBBEBE"/>
<path d="M80.3547 109C79.8033 109.006 79.2532 108.945 78.7165 108.819C78.1747 108.692 77.6971 108.374 77.3723 107.922C77.1832 107.636 77.0605 107.276 76.759 107.115C76.2657 106.86 75.7035 107.292 75.31 107.687C74.9516 108.078 74.5364 108.412 74.0782 108.678C73.5313 108.967 72.8924 109.069 72.3762 109.409C71.9729 109.713 71.6268 110.087 71.3539 110.512L67.7327 115.44C66.2786 117.422 65.0136 119.549 63.7179 121.64C62.596 123.451 62.0082 125.534 61.1623 127.488C61.0953 127.607 61.0676 127.745 61.0831 127.881C61.1138 128.014 61.2748 128.121 61.3872 128.045C61.0064 128.423 61.3412 129.066 61.2518 129.597C61.1501 129.969 60.938 130.301 60.6436 130.55C61.206 130.476 61.7771 130.503 62.3302 130.629C62.9019 130.791 63.4414 131.05 63.9249 131.395C64.2341 131.346 64.206 130.797 64.436 130.593C64.574 130.473 64.7785 130.488 64.9599 130.453C65.6422 130.32 65.9131 129.5 66.437 129.038C66.874 128.652 67.4925 128.527 67.955 128.165C68.7064 127.575 68.8674 126.525 69.2609 125.654C69.5957 124.916 70.1222 124.273 70.4161 123.517C70.6077 123.027 70.6997 122.496 70.9732 122.044C71.4102 121.313 72.2331 120.925 73.0176 120.575C73.5134 120.353 74.0398 120.123 74.574 120.159C74.5458 121.347 74.3951 122.516 74.6532 123.675C74.7426 124.084 74.8679 124.482 74.9752 124.888C75.4633 126.717 75.5783 128.622 75.6013 130.506C76.7755 130.238 77.9747 130.094 79.1791 130.077C80.1272 130.049 81.0728 130.172 82.0209 130.154C83.1453 130.133 84.257 129.916 85.3815 129.84C86.5059 129.763 87.6815 129.84 88.6756 130.351C88.5949 128.732 88.6402 127.11 88.811 125.499L89.0819 122.96C89.1431 122.223 89.2566 121.491 89.4218 120.769C89.57 120.187 89.7847 119.625 89.9483 119.046C90.5233 117.003 90.4185 114.822 90.3086 112.695C90.2524 111.602 89.8307 110.527 89.3349 109.554C89.1555 109.193 88.9505 108.845 88.7216 108.512C88.1225 107.687 87.3241 107.028 86.4008 106.595C85.4776 106.161 84.4596 105.969 83.4418 106.035C83.3118 106.039 83.1836 106.067 83.0636 106.117C82.8479 106.255 82.6794 106.455 82.5806 106.692C82.0518 107.641 81.2847 108.437 80.3547 109Z" fill="#3F3D56"/>
<path d="M75.3049 103.015C75.4199 102.759 75.7292 102.665 75.9183 102.46C76.2812 102.072 76.1176 101.452 76.1738 100.928C76.2658 100.162 76.9022 99.5212 77.6305 99.248C78.3733 99.0098 79.1636 98.9598 79.9305 99.1024C80.2997 99.1293 80.6563 99.2478 80.9681 99.4471C81.101 99.5442 81.2236 99.6693 81.3489 99.7587C81.5771 99.8965 81.8503 99.9398 82.11 99.8792C82.3698 99.8186 82.5955 99.659 82.7391 99.4344C81.8344 98.3465 80.8326 97.1974 79.4577 96.8629C78.9861 96.7667 78.5054 96.7213 78.0241 96.7276C77.3877 96.7148 76.731 96.7046 76.1432 96.9472C75.3433 97.2766 74.781 98.035 74.4923 98.8522C74.2397 99.6804 74.1047 100.54 74.0911 101.406C74.0387 101.983 74.0387 102.565 74.0911 103.142C74.1898 103.931 74.4831 104.683 74.9446 105.331C75.007 105.431 75.0953 105.513 75.2002 105.568C76.3655 106.079 75.2104 103.226 75.3049 103.015Z" fill="#3F3D56"/>
<path d="M82.6062 98.8035C82.4656 97.6007 81.607 96.6074 80.6946 95.8081C79.9593 95.1151 79.0834 94.5882 78.1263 94.2632C77.1628 93.9797 76.0537 94.041 75.2283 94.6156C74.5638 95.0778 74.1422 95.8132 73.8176 96.5538C73.3912 97.4277 73.1801 98.3907 73.2017 99.3627C73.2656 100.328 73.7358 101.306 74.574 101.794C74.8756 101.349 75.3995 101.12 75.9029 100.938C78.0972 100.106 80.3349 99.3938 82.6062 98.8035Z" fill="#FED253"/>
<path opacity="0.1" d="M74.8551 98.3029C74.9369 98.3029 74.9905 98.3871 75.0314 98.4561C75.2395 98.78 75.4182 99.1218 75.5655 99.4775C75.2665 99.5414 74.7529 99.6129 74.6046 99.3498C74.5254 99.2171 74.62 98.2901 74.8551 98.3029Z" fill="black"/>
<path opacity="0.1" d="M80.6793 97.7258C80.618 97.7845 80.5464 97.6645 80.5464 97.5777V96.5869C80.5447 96.5593 80.5509 96.5319 80.5643 96.5077C80.5749 96.4956 80.5878 96.4858 80.6023 96.4787C80.6168 96.4717 80.6326 96.4677 80.6486 96.4669C80.8556 96.4439 81.0269 96.6201 81.1598 96.7886C81.3614 97.0618 81.5368 97.3533 81.6836 97.6594L80.6026 97.6262" fill="black"/>
<path d="M94.1701 114.133C94.4053 113.91 94.6564 113.704 94.9215 113.517C95.6293 113.045 96.4855 112.859 97.2802 112.557C98.075 112.256 98.8826 111.768 99.1918 110.977C99.3466 110.482 99.3971 109.96 99.34 109.445C99.3475 109.229 99.3091 109.014 99.2276 108.814C99.1303 108.637 98.9918 108.486 98.8238 108.375C97.7454 107.578 96.2989 107.514 94.9598 107.596C92.0075 107.779 89.1137 108.5 86.4216 109.725C86.2793 109.772 86.1545 109.861 86.0638 109.981C86.0114 110.091 85.9877 110.214 85.9949 110.336C85.9472 111.089 86.0453 111.844 86.2836 112.56C86.6363 113.469 87.3621 114.202 87.6662 115.129C87.8042 115.545 87.8502 115.987 87.9703 116.406C88.0688 116.838 88.3248 117.219 88.6884 117.473C89.6979 118.076 90.6511 117.266 91.3513 116.638L94.1701 114.133Z" fill="#3F3D56"/>
<path d="M80.9503 117.67L79.6546 114.845C79.4646 114.454 79.3007 114.051 79.1639 113.638C79.0157 113.145 78.9442 112.634 78.8062 112.139C78.3513 110.489 77.2038 109.115 76.6441 107.499C76.6088 107.353 76.5366 107.218 76.4346 107.108C76.3529 107.05 76.2595 107.011 76.161 106.994C76.0625 106.976 75.9614 106.98 75.8647 107.006C75.0827 107.141 74.4719 107.736 73.7564 108.073C73.4241 108.227 73.0664 108.329 72.7341 108.505C72.5681 108.583 72.4209 108.697 72.3027 108.837C72.1845 108.978 72.0981 109.142 72.0492 109.319C71.97 109.71 72.1642 110.086 72.3278 110.466C73.0229 112.034 73.1814 113.786 73.212 115.502C73.235 116.656 73.1762 117.894 72.4939 118.821C71.1829 120.609 72.0211 123.234 72.5118 125.397C72.5706 125.652 72.6396 125.928 72.6805 126.199C72.7237 126.537 72.7433 126.879 72.7392 127.22C72.7392 128.367 72.6753 129.549 72.1949 130.588C72.6692 130.84 73.192 130.988 73.7282 131.022C75.2122 131.211 76.7021 131.344 78.1979 131.421C78.6666 131.465 79.1392 131.441 79.6009 131.349C80.1493 131.201 80.6327 130.875 80.9747 130.422C81.3167 129.968 81.4978 129.414 81.4895 128.847C81.5713 129.554 81.7221 130.323 82.2357 130.813C82.7494 131.303 83.4982 131.377 84.1958 131.416C86.1649 131.52 88.1392 131.464 90.0992 131.25C90.2243 131.244 90.3473 131.215 90.4621 131.165C90.8403 130.976 90.8608 130.456 90.8301 130.037C90.7739 129.253 90.7151 128.469 90.6206 127.69C90.5404 127.193 90.4994 126.691 90.4979 126.188C90.5369 125.671 90.6224 125.158 90.7534 124.656C91.0959 123.063 91.3668 121.436 91.2518 119.804C91.2063 119.407 91.1901 119.007 91.2032 118.607C91.2697 117.705 91.745 116.847 91.6556 115.951C91.4 113.316 91.193 110.612 90.457 108.068C90.3241 107.614 90.1554 107.126 89.7593 106.865C89.2482 106.523 88.5301 106.702 87.9449 106.485C87.6703 106.357 87.4092 106.202 87.1654 106.023C86.6359 105.692 86.0288 105.505 85.4046 105.481C84.9344 105.464 84.4105 105.568 84.1269 105.946C83.9955 106.159 83.9086 106.396 83.8713 106.643C83.5007 108.201 83.0663 109.741 82.6318 111.281L82.2153 112.757L81.0985 116.72C80.9886 117.141 81.0627 117.271 80.9503 117.67Z" fill="#76239D"/>
<path d="M87.4848 102.208L112.205 128.165V130.366H101.183L82.6062 106.14" fill="#F1C0C0"/>
<path opacity="0.1" d="M87.4848 102.208L112.205 128.165V130.366H101.183L82.6062 106.14" fill="black"/>
<path opacity="0.1" d="M82.9998 105.798L83.079 105.826L101.341 128.165H112.205V130.366H101.183L82.6062 106.14L82.9998 105.798Z" fill="black"/>
<path d="M85.844 106.344C84.9496 106.735 83.9554 107.236 83.6871 108.175C83.6341 108.34 83.6227 108.516 83.6539 108.686C83.7192 108.886 83.8439 109.062 84.0113 109.19C84.1788 109.319 84.3812 109.393 84.5918 109.404C85.0126 109.414 85.431 109.337 85.821 109.179L91.0983 107.437C91.2414 107.391 91.4049 107.323 91.4407 107.182C91.4499 107.094 91.4321 107.005 91.3896 106.927C91.226 106.528 91.065 105.714 90.7226 105.435C90.4415 105.211 89.8844 105.29 89.5445 105.295C88.236 105.305 87.0068 105.834 85.844 106.344Z" fill="#76239D"/>
<path d="M90.5489 107.644C91.4379 107.642 92.3219 107.779 93.1683 108.05C94.0186 108.326 94.7717 108.84 95.338 109.531C95.5029 109.724 95.6202 109.954 95.6805 110.2C95.7316 110.456 96.5647 110.609 96.3807 110.783C96.9404 110.693 96.8075 110.956 97.3748 110.951C97.9421 110.946 98.5555 110.8 98.8954 110.348C99.1315 109.977 99.2367 109.538 99.1944 109.1C99.2018 108.797 99.1443 108.495 99.0257 108.216C98.7701 107.68 98.1824 107.391 97.6406 107.144L93.0763 105.057C92.8116 104.917 92.5274 104.816 92.233 104.759C91.9853 104.735 91.7356 104.741 91.4893 104.776L89.4219 105.014C89.874 105.306 90.2421 105.711 90.4899 106.189C90.7377 106.667 90.8567 107.201 90.8351 107.739" fill="#3F3D56"/>
</g>
<defs>
<clipPath id="clip0_959_130">
<rect width="301" height="185" fill="white"/>
</clipPath>
</defs>
</svg>
