<svg width="128" height="128" viewBox="0 0 128 128" fill="none" xmlns="http://www.w3.org/2000/svg">
<path d="M117.333 29.3335H48C42.1333 29.3335 37.3333 34.1335 37.3333 40.0002V88.0002C37.3333 90.8291 38.4571 93.5422 40.4575 95.5426C42.4579 97.543 45.171 98.6668 48 98.6668H117.333C123.253 98.6668 128 93.9202 128 88.0002V40.0002C128 37.1712 126.876 34.4581 124.876 32.4577C122.875 30.4573 120.162 29.3335 117.333 29.3335ZM117.333 88.0002H48V48.9068L82.6667 66.6668L117.333 48.9068V88.0002ZM82.6667 57.6535L48 40.0002H117.333L82.6667 57.6535ZM26.6667 88.0002C26.6667 88.9068 26.8267 89.7602 26.9333 90.6668H5.33333C2.38933 90.6668 0 88.2668 0 85.3335C0 82.4002 2.38933 80.0002 5.33333 80.0002H26.6667V88.0002ZM16 37.3335H26.9333C26.8267 38.2402 26.6667 39.0935 26.6667 40.0002V48.0002H16C13.0667 48.0002 10.6667 45.6002 10.6667 42.6668C10.6667 39.7335 13.0667 37.3335 16 37.3335ZM5.33333 64.0002C5.33333 61.0668 7.73333 58.6668 10.6667 58.6668H26.6667V69.3335H10.6667C7.73333 69.3335 5.33333 66.9335 5.33333 64.0002Z" fill="black"/>
</svg>
