<svg width="250" height="250" viewBox="0 0 250 250" fill="none" xmlns="http://www.w3.org/2000/svg">
<path d="M250 125C250 108.585 246.767 92.3303 240.485 77.1646C234.203 61.9989 224.996 48.219 213.388 36.6116C201.781 25.0043 188.001 15.7969 172.835 9.51506C157.67 3.23322 141.415 -7.17533e-07 125 0C108.585 7.17533e-07 92.3303 3.23322 77.1646 9.51506C61.9989 15.7969 48.219 25.0043 36.6116 36.6117C25.0043 48.219 15.7969 61.9989 9.51505 77.1646C3.23322 92.3303 -1.43506e-06 108.585 0 125H41.7834C41.7834 114.072 43.9359 103.251 48.1179 93.1544C52.2999 83.0581 58.4296 73.8844 66.157 66.157C73.8844 58.4296 83.0581 52.2999 93.1544 48.1179C103.251 43.9359 114.072 41.7834 125 41.7834C135.928 41.7834 146.749 43.9359 156.846 48.1179C166.942 52.2999 176.116 58.4296 183.843 66.157C191.57 73.8844 197.7 83.0581 201.882 93.1544C206.064 103.251 208.217 114.072 208.217 125H250Z" fill="#76239D"/>
<path d="M210 125C210 113.838 207.801 102.785 203.53 92.4719C199.258 82.1592 192.997 72.7889 185.104 64.8959C177.211 57.0029 167.841 50.7419 157.528 46.4702C147.215 42.1986 136.162 40 125 40C113.838 40 102.785 42.1986 92.4719 46.4702C82.1592 50.7419 72.7889 57.0029 64.8959 64.8959C57.0029 72.7889 50.7419 82.1592 46.4702 92.4719C42.1986 102.785 40 113.838 40 125H74.9101C74.9101 118.422 76.2057 111.909 78.7229 105.831C81.2402 99.7542 84.9298 94.2324 89.5811 89.5811C94.2324 84.9298 99.7542 81.2402 105.831 78.7229C111.909 76.2057 118.422 74.9101 125 74.9101C131.578 74.9101 138.091 76.2057 144.169 78.7229C150.246 81.2402 155.768 84.9298 160.419 89.5811C165.07 94.2324 168.76 99.7542 171.277 105.831C173.794 111.909 175.09 118.422 175.09 125H210Z" fill="#FED253"/>
</svg>
