<svg width="250" height="250" viewBox="0 0 250 250" fill="none" xmlns="http://www.w3.org/2000/svg">
<path d="M250 125C250 108.585 246.767 92.3303 240.485 77.1646C234.203 61.9989 224.996 48.219 213.388 36.6116C201.781 25.0043 188.001 15.7969 172.835 9.51506C157.67 3.23322 141.415 -7.17533e-07 125 0C108.585 7.17533e-07 92.3303 3.23322 77.1646 9.51506C61.9989 15.7969 48.219 25.0043 36.6116 36.6117C25.0043 48.219 15.7969 61.9989 9.51505 77.1646C3.23322 92.3303 -1.43506e-06 108.585 0 125H41.7834C41.7834 114.072 43.9359 103.251 48.1179 93.1544C52.2999 83.0581 58.4296 73.8844 66.157 66.157C73.8844 58.4296 83.0581 52.2999 93.1544 48.1179C103.251 43.9359 114.072 41.7834 125 41.7834C135.928 41.7834 146.749 43.9359 156.846 48.1179C166.942 52.2999 176.116 58.4296 183.843 66.157C191.57 73.8844 197.7 83.0581 201.882 93.1544C206.064 103.251 208.217 114.072 208.217 125H250Z" fill="#76239D"/>
<path d="M210 125C210 113.838 207.801 102.785 203.53 92.4719C199.258 82.1592 192.997 72.7889 185.104 64.8959C177.211 57.0029 167.841 50.7419 157.528 46.4702C147.215 42.1986 136.162 40 125 40C113.838 40 102.785 42.1986 92.4719 46.4702C82.1592 50.7419 72.7889 57.0029 64.8959 64.8959C57.0029 72.7889 50.7419 82.1592 46.4702 92.4719C42.1986 102.785 40 113.838 40 125H74.9101C74.9101 118.422 76.2057 111.909 78.7229 105.831C81.2402 99.7542 84.9298 94.2324 89.5811 89.5811C94.2324 84.9298 99.7542 81.2402 105.831 78.7229C111.909 76.2057 118.422 74.9101 125 74.9101C131.578 74.9101 138.091 76.2057 144.169 78.7229C150.246 81.2402 155.768 84.9298 160.419 89.5811C165.07 94.2324 168.76 99.7542 171.277 105.831C173.794 111.909 175.09 118.422 175.09 125H210Z" fill="#FED253"/>
<path d="M29.1477 158V146.364H33.5114C34.4053 146.364 35.1553 146.519 35.7614 146.83C36.3712 147.14 36.8314 147.576 37.142 148.136C37.4564 148.693 37.6136 149.343 37.6136 150.085C37.6136 150.831 37.4545 151.479 37.1364 152.028C36.822 152.574 36.358 152.996 35.7443 153.295C35.1307 153.591 34.3769 153.739 33.483 153.739H30.375V151.989H33.1989C33.7216 151.989 34.1496 151.917 34.483 151.773C34.8163 151.625 35.0625 151.411 35.2216 151.131C35.3845 150.847 35.4659 150.498 35.4659 150.085C35.4659 149.672 35.3845 149.32 35.2216 149.028C35.0587 148.733 34.8106 148.509 34.4773 148.358C34.1439 148.203 33.714 148.125 33.1875 148.125H31.2557V158H29.1477ZM35.1591 152.727L38.0398 158H35.6875L32.858 152.727H35.1591ZM60.2483 158H57.9983L62.0949 146.364H64.6972L68.7994 158H66.5494L63.4415 148.75H63.3506L60.2483 158ZM60.3222 153.438H66.4585V155.131H60.3222V153.438ZM91.6401 146.364V158H89.5321V146.364H91.6401ZM122.685 146.364V158H120.81L115.327 150.074H115.231V158H113.123V146.364H115.009L120.486 154.295H120.589V146.364H122.685ZM144.182 158V146.364H148.637C149.478 146.364 150.176 146.496 150.733 146.761C151.294 147.023 151.712 147.381 151.989 147.835C152.269 148.29 152.409 148.805 152.409 149.381C152.409 149.854 152.318 150.259 152.137 150.597C151.955 150.93 151.711 151.201 151.404 151.409C151.097 151.617 150.754 151.767 150.375 151.858V151.972C150.788 151.994 151.184 152.121 151.563 152.352C151.945 152.58 152.258 152.902 152.5 153.318C152.743 153.735 152.864 154.239 152.864 154.83C152.864 155.432 152.718 155.973 152.426 156.455C152.135 156.932 151.695 157.309 151.108 157.585C150.521 157.862 149.782 158 148.892 158H144.182ZM146.29 156.239H148.557C149.322 156.239 149.873 156.093 150.211 155.801C150.551 155.506 150.722 155.127 150.722 154.665C150.722 154.32 150.637 154.009 150.466 153.733C150.296 153.453 150.053 153.233 149.739 153.074C149.425 152.911 149.05 152.83 148.614 152.83H146.29V156.239ZM146.29 151.312H148.375C148.739 151.312 149.067 151.246 149.358 151.114C149.65 150.977 149.879 150.786 150.046 150.54C150.216 150.29 150.301 149.994 150.301 149.653C150.301 149.203 150.142 148.831 149.824 148.54C149.51 148.248 149.042 148.102 148.421 148.102H146.29V151.312ZM184.295 152.182C184.295 153.436 184.061 154.509 183.591 155.403C183.125 156.294 182.489 156.975 181.682 157.449C180.879 157.922 179.968 158.159 178.949 158.159C177.93 158.159 177.017 157.922 176.21 157.449C175.407 156.972 174.771 156.288 174.301 155.398C173.835 154.504 173.602 153.432 173.602 152.182C173.602 150.928 173.835 149.856 174.301 148.966C174.771 148.072 175.407 147.388 176.21 146.915C177.017 146.441 177.93 146.205 178.949 146.205C179.968 146.205 180.879 146.441 181.682 146.915C182.489 147.388 183.125 148.072 183.591 148.966C184.061 149.856 184.295 150.928 184.295 152.182ZM182.176 152.182C182.176 151.299 182.038 150.555 181.761 149.949C181.489 149.339 181.11 148.879 180.625 148.568C180.14 148.254 179.581 148.097 178.949 148.097C178.316 148.097 177.758 148.254 177.273 148.568C176.788 148.879 176.407 149.339 176.131 149.949C175.858 150.555 175.722 151.299 175.722 152.182C175.722 153.064 175.858 153.811 176.131 154.42C176.407 155.027 176.788 155.487 177.273 155.801C177.758 156.112 178.316 156.267 178.949 156.267C179.581 156.267 180.14 156.112 180.625 155.801C181.11 155.487 181.489 155.027 181.761 154.42C182.038 153.811 182.176 153.064 182.176 152.182ZM207.64 158L204.356 146.364H206.623L208.72 154.915H208.828L211.066 146.364H213.129L215.373 154.92H215.476L217.572 146.364H219.839L216.555 158H214.476L212.146 149.835H212.055L209.72 158H207.64Z" fill="black"/>
</svg>
