<svg width="362" height="291" viewBox="0 0 362 291" fill="none" xmlns="http://www.w3.org/2000/svg">
<g clip-path="url(#clip0_532_482)">
<path d="M109.574 112.206C107.637 109.638 104.899 107.262 104.726 104.094C104.567 101.187 106.685 98.3022 105.792 95.5219C105.105 93.3842 102.839 92.0943 100.624 91.4113C96.3849 90.1223 91.848 90.301 87.7178 91.9196L87.942 91.7579C85.4212 90.8393 82.4747 91.7876 80.4914 93.5439C78.5079 95.3002 77.3292 97.7347 76.4147 100.174C75.4999 102.614 74.7913 105.143 73.5205 107.43C72.2495 109.717 70.3037 111.797 67.7365 112.587C68.5959 114.341 71.2826 114.943 72.8584 113.734C73.2609 113.4 73.6228 113.017 73.9361 112.595C74.987 111.287 76.038 109.98 77.089 108.673C78.1704 110.64 76.5549 113.356 77.8841 115.177C78.5695 116.116 79.8214 116.473 80.984 116.729C90.0709 118.712 99.4972 118.355 108.416 115.688C109.132 115.472 109.923 115.174 110.22 114.511C110.564 113.745 110.084 112.881 109.574 112.206Z" fill="#2F2E41"/>
<path d="M135.34 122.226C135.283 122.481 135.246 122.741 135.229 123.002L115.368 134.723L110.54 131.88L105.394 138.772L113.462 144.654C114.114 145.13 114.899 145.376 115.699 145.356C116.499 145.336 117.271 145.051 117.9 144.544L138.38 128.016C139.304 128.366 140.311 128.42 141.266 128.17C142.221 127.921 143.079 127.38 143.726 126.619C144.373 125.859 144.778 124.915 144.888 123.913C144.998 122.911 144.807 121.899 144.34 121.01C143.874 120.122 143.154 119.4 142.277 118.941C141.4 118.481 140.407 118.306 139.429 118.438C138.452 118.57 137.538 119.003 136.807 119.68C136.077 120.356 135.565 121.245 135.34 122.226Z" fill="#FFB7B7"/>
<path d="M114.704 135.278L108.285 143.788C108.102 144.03 107.871 144.229 107.606 144.372C107.341 144.514 107.05 144.597 106.751 144.613C106.453 144.63 106.154 144.581 105.876 144.469C105.598 144.357 105.346 144.185 105.139 143.965L97.8721 136.245C96.6661 135.282 95.8825 133.87 95.6933 132.317C95.5041 130.764 95.9246 129.197 96.8627 127.961C97.8008 126.725 99.1799 125.92 100.698 125.722C102.215 125.524 103.747 125.951 104.958 126.907L114.073 132.12C114.333 132.27 114.56 132.475 114.736 132.722C114.913 132.969 115.035 133.252 115.095 133.551C115.155 133.851 115.151 134.16 115.083 134.458C115.016 134.756 114.886 135.036 114.704 135.278Z" fill="#76239D"/>
<path d="M105.87 283.562L111.538 283.562L114.234 261.196L105.868 261.197L105.87 283.562Z" fill="#FFB7B7"/>
<path d="M104.424 281.669L115.586 281.669H115.587C117.474 281.669 119.283 282.435 120.617 283.8C121.951 285.165 122.701 287.016 122.701 288.946V289.182L104.424 289.183L104.424 281.669Z" fill="#2F2E41"/>
<path d="M67.0322 283.562L72.7007 283.562L75.3971 261.196L67.0313 261.197L67.0322 283.562Z" fill="#FFB7B7"/>
<path d="M65.5864 281.669L76.7494 281.669H76.7498C78.6365 281.669 80.4458 282.435 81.7799 283.8C83.114 285.165 83.8636 287.016 83.8637 288.946V289.182L65.5868 289.183L65.5864 281.669Z" fill="#2F2E41"/>
<path d="M102.465 109.044C103.056 103.542 99.1747 98.5931 93.7968 97.9892C88.4188 97.3853 83.5805 101.356 82.9902 106.857C82.3998 112.358 86.281 117.308 91.6589 117.912C97.0368 118.515 101.875 114.545 102.465 109.044Z" fill="#FFB7B7"/>
<path d="M98.4596 122.973L104.231 125.898C104.231 125.898 110.679 137.361 106.98 148.239C105.184 153.52 110.241 170.356 110.241 170.356C110.241 170.356 118.076 246.615 118.101 270.151C108.367 271.682 99.1202 273.574 98.6579 268.844C98.1955 264.114 93.1344 208.193 93.1344 208.193C93.1344 208.193 86.1745 270.263 80.6263 271.209C75.0782 272.155 63.9819 270.736 63.9819 270.736C63.9819 270.736 72.7912 179.815 78.8017 174.14L79.7264 169.41L79.7017 126.956L86.6265 123.575L98.4596 122.973Z" fill="#2F2E41"/>
<path d="M77.8145 187.424C78.4532 187.07 79.0083 186.578 79.4407 185.981C79.8732 185.384 80.1725 184.698 80.3176 183.97C80.4626 183.242 80.45 182.491 80.2804 181.768C80.1108 181.046 79.7885 180.371 79.3362 179.79L86.0479 134.025L77.2792 133.595L72.0472 179.17C71.1434 180.012 70.5728 181.164 70.4438 182.407C70.3148 183.651 70.6361 184.9 71.347 185.917C72.0579 186.934 73.109 187.65 74.301 187.927C75.493 188.205 76.7431 188.026 77.8145 187.424Z" fill="#FFB7B7"/>
<path d="M85.8574 145.492L75.3703 144.815C75.0719 144.795 74.7811 144.711 74.5176 144.566C74.2542 144.421 74.0243 144.22 73.8436 143.977C73.663 143.733 73.5358 143.452 73.4707 143.154C73.4056 142.855 73.4042 142.546 73.4666 142.247L75.6517 131.766C75.7566 130.205 76.4624 128.75 77.6144 127.72C78.7665 126.69 80.2707 126.17 81.7972 126.273C83.3238 126.376 84.748 127.094 85.7576 128.27C86.7672 129.446 87.2797 130.983 87.1828 132.545L88.0617 143.189C88.0868 143.494 88.0474 143.801 87.9461 144.089C87.8449 144.376 87.6841 144.639 87.475 144.857C87.2658 145.076 87.013 145.245 86.7339 145.355C86.4547 145.465 86.1558 145.511 85.8574 145.492Z" fill="#76239D"/>
<path d="M102.995 101.436C102.613 99.6649 101.373 98.1972 99.945 97.1224C97.5903 95.3505 94.7028 94.4795 91.7851 94.661C88.8673 94.8425 86.1042 96.065 83.9768 98.1157C82.7881 99.1897 81.9312 100.595 81.5107 102.159C81.3101 102.941 81.2994 103.761 81.4795 104.548C81.6596 105.335 82.025 106.065 82.544 106.675L82.7397 106.8C82.5622 106.03 83.147 105.261 83.8454 104.921C84.5719 104.649 85.3302 104.475 86.101 104.404C87.2671 104.179 88.3723 103.7 89.342 103C90.3116 102.3 91.1231 101.395 91.7216 100.347C92.165 101.637 92.8734 102.815 93.7991 103.802C94.7248 104.789 95.8463 105.562 97.0882 106.068C98.383 106.586 101.939 107.298 103.172 106.641C104.744 105.802 103.377 103.208 102.995 101.436Z" fill="#2F2E41"/>
<path d="M30.915 269.747C32.61 270.356 34.4298 270.509 36.1993 270.19C37.9687 269.871 39.6281 269.092 41.0175 267.926C44.5558 264.888 45.6655 259.884 46.5679 255.25L49.2378 241.541L43.6481 245.479C39.628 248.31 35.5177 251.232 32.7345 255.334C29.9513 259.435 28.737 265.034 30.9726 269.471" fill="#E6E6E6"/>
<path d="M31.7781 287.297C31.0746 282.054 30.3507 276.743 30.8454 271.443C31.2838 266.737 32.6875 262.14 35.5454 258.37C37.0623 256.373 38.9081 254.662 40.9999 253.314C41.5452 252.962 42.0472 253.846 41.5042 254.197C37.8848 256.536 35.0853 259.991 33.5094 264.064C31.7688 268.592 31.4893 273.529 31.7891 278.339C31.9703 281.249 32.3554 284.139 32.7422 287.025C32.7727 287.156 32.7536 287.293 32.6888 287.41C32.624 287.527 32.5183 287.614 32.3931 287.654C32.2653 287.689 32.1291 287.671 32.0141 287.605C31.899 287.538 31.8143 287.427 31.7785 287.297L31.7781 287.297Z" fill="#F2F2F2"/>
<path d="M36.8422 278.884C37.569 280.014 38.5682 280.934 39.7436 281.555C40.9189 282.176 42.2307 282.476 43.5525 282.428C46.9503 282.263 49.7818 279.838 52.3305 277.535L59.8707 270.725L54.8806 270.481C51.2919 270.305 47.6106 270.14 44.1924 271.273C40.7743 272.407 37.622 275.13 36.9971 278.749" fill="#E6E6E6"/>
<path d="M29.7894 290.312C33.1765 284.181 37.105 277.367 44.1251 275.189C46.0769 274.586 48.1235 274.37 50.1546 274.553C50.7948 274.609 50.635 275.618 49.996 275.562C46.5913 275.273 43.1931 276.193 40.3736 278.166C37.6603 280.056 35.5477 282.682 33.7598 285.467C32.6645 287.174 31.6835 288.952 30.7024 290.728C30.389 291.296 29.4722 290.886 29.7894 290.312Z" fill="#F2F2F2"/>
<path d="M258.673 176.97C252.317 168.269 240.684 166.169 234.904 170.588C229.123 175.006 227.795 187.014 234.151 195.715C240.034 203.769 250.693 205.965 256.564 202.948C256.545 203.042 256.544 203.139 256.561 203.234L256.892 204.908C256.917 205.035 256.974 205.154 257.056 205.253C257.139 205.352 257.245 205.428 257.365 205.473C257.484 205.518 257.613 205.531 257.739 205.511C257.864 205.491 257.983 205.438 258.083 205.358L260.886 203.118C260.986 203.038 261.065 202.933 261.115 202.813C261.164 202.693 261.183 202.562 261.169 202.433C261.155 202.303 261.109 202.18 261.035 202.074C260.961 201.968 260.862 201.882 260.747 201.827L259.24 201.093C259.186 201.069 259.131 201.051 259.074 201.04C263.599 196.146 264.569 185.041 258.673 176.97Z" fill="#CCCCCC"/>
<path d="M244.77 173.685C247.879 174.19 250.68 175.897 252.595 178.453C254.509 181.01 255.391 184.221 255.058 187.423C254.99 188.157 256.11 188.152 256.178 187.423C256.499 183.972 255.532 180.524 253.471 177.771C251.411 175.018 248.409 173.164 245.068 172.58C244.363 172.457 244.06 173.561 244.77 173.685Z" fill="white"/>
<path d="M269.033 26.5645C274.59 17.3087 272.201 5.47445 266.052 1.61122C259.903 -2.25201 248.505 0.920471 242.948 10.1763C237.804 18.7438 239.745 29.6878 244.655 34.1544C244.562 34.1712 244.474 34.2059 244.394 34.2568L242.996 35.1897C242.889 35.2608 242.802 35.3586 242.743 35.4738C242.683 35.5891 242.654 35.7178 242.657 35.848C242.66 35.9782 242.696 36.1053 242.76 36.2175C242.825 36.3296 242.917 36.423 243.026 36.4887L246.097 38.3259C246.206 38.3917 246.331 38.4276 246.458 38.4303C246.585 38.433 246.711 38.4024 246.824 38.3413C246.936 38.2803 247.031 38.1909 247.1 38.0816C247.17 37.9723 247.21 37.8467 247.219 37.7168L247.328 36.0126C247.331 35.9531 247.326 35.8936 247.315 35.8352C253.433 38.3295 263.879 35.1506 269.033 26.5645Z" fill="#CCCCCC"/>
<path d="M266.883 12.1347C267.572 15.2769 267.056 18.57 265.441 21.3341C263.825 24.0983 261.234 26.1225 258.202 26.989C257.51 27.1949 257.929 28.2583 258.616 28.0536C261.87 27.0835 264.645 24.8908 266.385 21.9152C268.124 18.9396 268.7 15.4013 267.996 12.0097C267.847 11.2942 266.733 11.4139 266.883 12.1347Z" fill="white"/>
<path d="M170.555 70.4813C170.09 59.6296 161.631 51.1948 154.422 51.5179C147.212 51.8409 139.507 61 139.972 71.8517C140.402 81.8962 148.002 89.85 154.515 90.7371C154.448 90.8041 154.393 90.8836 154.355 90.9715L153.707 92.5456C153.658 92.6656 153.64 92.7965 153.654 92.9259C153.668 93.0553 153.714 93.1789 153.787 93.2849C153.861 93.391 153.96 93.4759 154.075 93.5318C154.19 93.5876 154.317 93.6125 154.444 93.604L157.994 93.3669C158.121 93.3584 158.243 93.3168 158.35 93.2462C158.457 93.1755 158.545 93.078 158.604 92.9631C158.664 92.8481 158.694 92.7194 158.691 92.5892C158.689 92.4591 158.654 92.3317 158.59 92.2193L157.747 90.7448C157.717 90.6941 157.681 90.6472 157.639 90.6052C164.073 89.1664 170.986 80.5477 170.555 70.4813Z" fill="#76239D"/>
<path d="M160.872 59.7597C163.164 61.9677 164.539 64.9915 164.715 68.2069C164.89 71.4223 163.852 74.5839 161.814 77.039C161.354 77.6059 162.283 78.2472 162.74 77.684C164.904 75.0158 166.003 71.6093 165.815 68.1474C165.627 64.6856 164.166 61.4245 161.726 59.0181C161.211 58.5108 160.353 59.2486 160.872 59.7597Z" fill="white"/>
<path d="M203.611 142.47C200.832 142.291 198.134 141.441 195.739 139.989C193.343 138.537 191.318 136.526 189.829 134.119C189.412 133.436 188.867 132.687 189.156 131.847C189.256 131.525 189.461 131.247 189.736 131.059C190.01 130.871 190.339 130.785 190.669 130.813C191.52 130.919 192.07 131.771 192.175 132.588C192.294 133.514 191.655 134.241 190.866 134.585C188.939 135.426 186.994 134.127 185.424 133.089C181.847 130.726 177.913 128.588 173.578 128.319C169.567 128.07 165.267 129.678 163.036 133.236C162.646 133.859 163.615 134.434 164.003 133.814C166.215 130.286 170.688 129.019 174.576 129.564C176.894 129.938 179.131 130.715 181.192 131.862C182.261 132.429 183.298 133.058 184.314 133.72C185.28 134.409 186.305 135.01 187.375 135.515C189.16 136.265 191.523 136.206 192.77 134.479C193.933 132.868 193.034 130.186 191.089 129.733C190.662 129.647 190.221 129.67 189.805 129.802C189.389 129.933 189.012 130.167 188.707 130.484C188.402 130.802 188.178 131.191 188.056 131.618C187.934 132.046 187.918 132.497 188.009 132.932C188.203 133.881 188.901 134.81 189.442 135.585C191.066 137.922 193.182 139.857 195.635 141.247C198.087 142.637 200.813 143.446 203.611 143.616C204.332 143.652 204.33 142.506 203.611 142.47Z" fill="#CCCCCC"/>
<path d="M311.17 63.5355C314.236 62.0763 318.001 61.598 321.121 62.9539C324.241 64.3098 326.368 67.7853 325.359 70.8611C324.902 72.2556 323.86 73.6271 324.266 75.0355C324.578 76.1195 325.668 76.8353 326.738 77.3442C327.809 77.8531 328.979 78.2809 329.753 79.1393C330.527 79.9976 330.689 81.4752 329.722 82.1408C329.403 82.3601 329.005 82.4641 328.696 82.6952C328.433 82.914 328.243 83.2114 328.153 83.5459C328.063 83.8804 328.077 84.2354 328.193 84.5613C328.451 85.2171 328.876 85.7897 329.425 86.219C330.523 87.1873 331.973 88.2956 331.632 89.6702C331.506 90.0376 331.295 90.3683 331.017 90.6344C330.739 90.9004 330.402 91.0939 330.035 91.1985C329.273 91.4232 328.483 91.5299 327.69 91.515L295.301 92.5588C294.232 92.6409 293.157 92.5795 292.103 92.3761C291.591 92.2805 291.104 92.0779 290.672 91.7809C290.24 91.484 289.872 91.099 289.592 90.6502C288.972 89.4757 289.379 88.029 290.145 86.9324C290.911 85.8357 291.995 84.9707 292.891 83.9636C293.786 82.9566 294.519 81.6996 294.361 80.3981C294.235 79.3562 293.563 78.4558 293.081 77.5091C292.599 76.5625 292.319 75.3795 292.943 74.5086C293.823 73.2814 295.936 73.3924 296.937 72.2489C297.692 71.3859 297.546 70.1436 297.621 69.0308C297.802 66.354 299.613 63.8259 302.192 62.652C303.504 62.0762 304.93 61.8276 306.354 61.9268C307.778 62.026 309.158 62.4701 310.381 63.2225L311.17 63.5355Z" fill="#2F2E41"/>
<path d="M350.615 196.003V201.421L330.184 203.999L330.184 196.002L350.615 196.003Z" fill="#9E616A"/>
<path d="M355.749 194.621L355.749 212.093H355.532C353.769 212.092 352.079 211.376 350.832 210.101C349.585 208.825 348.885 207.096 348.885 205.292V205.292L348.885 194.621L355.749 194.621Z" fill="#2F2E41"/>
<path d="M325.358 205.22L324.058 210.473L303.633 207.841L305.553 200.089L325.358 205.22Z" fill="#9E616A"/>
<path d="M330.667 205.17L326.474 222.107L326.265 222.052C324.555 221.609 323.088 220.49 322.186 218.941C321.283 217.392 321.019 215.539 321.452 213.791L324.013 203.446L330.667 205.17Z" fill="#2F2E41"/>
<path d="M320.142 144.456L321.245 145.631C321.245 145.631 328.444 151.406 323.118 166.616L314.406 192.29L343.607 193.455L342.981 205.187C342.981 205.187 300.633 207.596 301.003 200.457C301.374 193.318 302.936 166.883 302.936 166.883L294.138 159.655L296.259 147.43L320.142 144.456Z" fill="#2F2E41"/>
<path d="M297.521 156.107L294.138 159.655L282.796 191.55C282.796 191.55 281.067 199.505 284.956 201.273C288.844 203.041 313.864 212.93 313.864 212.93L316.419 203.524L297.141 191.687L306.126 179.617L307.479 160.592L297.521 156.107Z" fill="#2F2E41"/>
<path d="M297.701 99.8412L326.491 93.9524L327.117 110.11L319.659 126.37L321.245 145.631L295.443 150.243L296.251 124.916C296.251 124.916 289.322 114.917 293.404 104.838L297.701 99.8412Z" fill="#E4E4E4"/>
<path d="M361.898 61.5112C362.042 62.1895 362.04 62.8918 361.89 63.5688C361.74 64.2458 361.447 64.881 361.031 65.4296C360.616 65.9782 360.087 66.4269 359.484 66.744C358.88 67.0612 358.216 67.2391 357.538 67.2653L329.93 100.014L323.511 92.0454L352.667 62.3602C352.7 61.192 353.15 60.0766 353.933 59.2254C354.716 58.3742 355.776 57.8462 356.914 57.7416C358.052 57.6369 359.188 57.9629 360.106 58.6576C361.025 59.3524 361.662 60.3677 361.898 61.5112Z" fill="#9E616A"/>
<path d="M335.941 96.4406C335.948 96.7465 335.89 97.0502 335.771 97.331C335.652 97.6118 335.476 97.863 335.253 98.0677L327.49 105.216C326.516 106.423 325.113 107.185 323.591 107.336C322.068 107.486 320.549 107.013 319.366 106.019C318.184 105.026 317.435 103.594 317.283 102.036C317.132 100.479 317.59 98.9237 318.558 97.7114L323.976 88.5363C324.131 88.2745 324.339 88.0498 324.586 87.8776C324.834 87.7054 325.114 87.5898 325.409 87.5385C325.704 87.4872 326.006 87.5016 326.295 87.5806C326.584 87.6595 326.853 87.8013 327.083 87.9961L335.186 94.8448C335.417 95.0395 335.604 95.2829 335.734 95.5584C335.864 95.8338 335.935 96.1347 335.941 96.4406Z" fill="#E4E4E4"/>
<path d="M252.559 138.473C252.516 137.78 252.621 137.086 252.869 136.44C253.116 135.793 253.499 135.21 253.991 134.732C254.482 134.253 255.07 133.891 255.713 133.67C256.357 133.449 257.039 133.375 257.714 133.453L289.813 105.313L294.99 114.176L261.81 139.05C261.606 140.2 260.997 141.234 260.099 141.955C259.2 142.677 258.074 143.036 256.933 142.965C255.793 142.894 254.718 142.397 253.912 141.569C253.105 140.741 252.624 139.64 252.559 138.473Z" fill="#9E616A"/>
<path d="M283.345 107.923C283.384 107.62 283.486 107.328 283.644 107.069C283.803 106.81 284.014 106.588 284.264 106.42L292.988 100.544C294.128 99.5003 295.627 98.962 297.154 99.0468C298.682 99.1317 300.115 99.8328 301.138 100.996C302.161 102.16 302.692 103.691 302.613 105.254C302.534 106.818 301.853 108.285 300.718 109.335L294.015 117.574C293.824 117.81 293.585 118 293.316 118.132C293.046 118.264 292.752 118.336 292.453 118.341C292.154 118.347 291.857 118.286 291.583 118.164C291.309 118.041 291.064 117.86 290.864 117.632L283.858 109.617C283.658 109.389 283.509 109.12 283.421 108.827C283.332 108.535 283.307 108.227 283.345 107.923Z" fill="#E4E4E4"/>
<path d="M309.972 92.302C315.832 92.302 320.583 87.442 320.583 81.4468C320.583 75.4517 315.832 70.5916 309.972 70.5916C304.111 70.5916 299.36 75.4517 299.36 81.4468C299.36 87.442 304.111 92.302 309.972 92.302Z" fill="#9E616A"/>
<path d="M320.828 79.9035C317.476 79.6282 314.694 76.2036 315.043 72.783C315.082 74.1929 314.613 75.5684 313.726 76.6478C312.838 77.7273 311.594 78.4353 310.229 78.6372C308.692 78.8105 307.007 78.3347 305.669 79.128C304.187 80.0067 303.712 82.1404 302.169 82.8993C300.677 83.6325 298.782 82.6325 298.045 81.1167C297.308 79.6008 297.489 77.7797 297.978 76.1622C298.674 73.8554 299.942 71.7723 301.659 70.1154C303.376 68.4586 305.482 67.2844 307.774 66.7071C310.066 66.1298 312.464 66.1691 314.737 66.821C317.009 67.473 319.078 68.7154 320.742 70.4276C322.151 71.8774 323.27 73.7253 323.452 75.7613C323.633 77.7974 322.71 80.0066 320.922 80.9213L320.828 79.9035Z" fill="#2F2E41"/>
<path d="M165.043 289.888H0.43205C0.317464 289.888 0.207576 289.841 0.126551 289.758C0.0455257 289.675 0 289.563 0 289.446C0 289.329 0.0455257 289.216 0.126551 289.133C0.207576 289.05 0.317464 289.004 0.43205 289.004H165.043C165.158 289.004 165.268 289.05 165.349 289.133C165.43 289.216 165.475 289.329 165.475 289.446C165.475 289.563 165.43 289.675 165.349 289.758C165.268 289.841 165.158 289.888 165.043 289.888Z" fill="#CACACA"/>
</g>
<defs>
<clipPath id="clip0_532_482">
<rect width="362" height="291" fill="white"/>
</clipPath>
</defs>
</svg>
