<svg width="341" height="275" viewBox="0 0 341 275" fill="none" xmlns="http://www.w3.org/2000/svg">
<g clip-path="url(#clip0_532_380)">
<path d="M137.721 221.677C137.085 220.848 134.333 221.735 133.827 220.983C133.323 220.234 135.88 219.092 137.341 216.484C137.604 216.013 139.265 213.049 138.036 212.134C135.706 210.401 125.045 217.555 121.315 215.214C120.496 214.7 119.924 213.674 117.446 212.009C116.46 211.346 115.864 211.047 115.287 211.159C114.469 211.317 114.404 212.163 113.526 213.827C112.21 216.323 111.431 216.172 110.664 218.163C110.095 219.641 110.225 220.5 109.555 220.668C108.607 220.905 107.734 219.337 106.533 219.477C105.306 219.621 104.565 221.446 104.331 222.813C103.892 225.377 105.111 227.07 105.787 228.849C106.521 230.783 106.957 233.724 105.261 237.888L88.4751 274.424C92.1809 266.927 102.911 246.375 107.42 238.738C108.721 236.534 110.159 234.297 113.109 233.415C115.951 232.565 119.852 233.073 124.827 232.147C125.408 232.039 127.02 231.722 127.223 230.989C127.39 230.384 126.442 230.046 126.588 229.478C126.783 228.718 128.648 228.708 130.94 227.831C132.555 227.212 133.562 226.476 134.428 225.843C134.689 225.652 138.568 222.78 137.721 221.677Z" fill="#F2F2F2"/>
<path d="M71.6806 240.911C70.9705 240.913 70.7402 242.212 70.1164 242.187C69.4948 242.162 69.5072 240.863 68.2716 239.557C68.0488 239.321 66.6445 237.836 65.7088 238.038C63.9352 238.421 65.4048 244.528 62.8408 245.267C62.2782 245.429 61.4614 245.35 59.6884 245.809C58.9831 245.991 58.621 246.131 58.5253 246.382C58.3894 246.738 58.9084 247.007 59.7124 247.82C60.9181 249.039 60.5977 249.291 61.6414 250.156C62.4162 250.798 62.9997 250.997 62.9127 251.299C62.7897 251.727 61.5419 251.606 61.2844 252.102C61.0216 252.608 61.9675 253.416 62.7682 253.899C64.271 254.805 65.698 254.831 67.0236 255.089C68.4641 255.368 70.4585 256.052 72.6143 257.896L90.9835 274.802C87.2896 271.234 77.3286 261.236 73.7775 257.323C72.7523 256.193 71.7463 255.003 72.037 253.629C72.3169 252.307 73.765 250.974 74.6121 248.821C74.711 248.569 74.9749 247.867 74.568 247.578C74.2317 247.34 73.7433 247.602 73.425 247.383C72.998 247.09 73.5301 246.38 73.6336 245.258C73.7066 244.466 73.5294 243.872 73.377 243.361C73.3311 243.207 72.6258 240.908 71.6806 240.911Z" fill="#F2F2F2"/>
<path d="M85.8462 243.367L85.4184 240.417L85.6138 240.193C86.5183 239.159 86.9793 238.149 86.9848 237.19C86.9857 237.038 86.9765 236.886 86.9673 236.73C86.9304 236.115 86.8843 235.35 87.4006 234.458C87.6901 233.961 88.5033 232.81 89.7259 232.953C90.055 232.988 90.304 233.105 90.493 233.242C90.5207 233.208 90.5492 233.173 90.5797 233.136C90.9604 232.688 91.2619 232.495 91.5523 232.31C91.7755 232.168 92.006 232.021 92.3674 231.673C92.526 231.521 92.6495 231.387 92.7537 231.274C93.07 230.934 93.483 230.528 94.2114 230.535C94.9895 230.564 95.397 231.061 95.6672 231.39C96.1494 231.977 96.3679 232.4 96.5126 232.68C96.5652 232.783 96.6251 232.898 96.6556 232.934C96.9064 233.219 98.9449 232.953 99.7129 232.856C101.438 232.633 102.931 232.441 103.546 233.282C103.986 233.883 103.659 234.678 102.543 235.708C102.196 236.028 101.826 236.272 101.498 236.463C101.77 236.588 102.013 236.78 102.112 237.082C102.344 237.797 101.549 238.514 99.7479 239.215C99.3008 239.39 98.6987 239.624 97.8551 239.736C97.4577 239.789 97.1 239.802 96.7939 239.809C96.7874 239.945 96.7459 240.094 96.6381 240.246C96.3218 240.695 95.6635 240.908 94.6715 240.857C93.5798 240.813 92.6809 240.652 91.888 240.511C91.1956 240.389 90.599 240.285 90.1307 240.309C89.2622 240.363 88.5928 240.9 87.8073 241.596L85.8462 243.367Z" fill="#F2F2F2"/>
<path d="M87.8307 225.802L84.2452 226.87L83.9156 226.78C82.3912 226.367 81.0097 226.279 79.8078 226.518C79.6168 226.556 79.4282 226.601 79.2362 226.647C78.475 226.831 77.5288 227.06 76.2813 226.9C75.5854 226.81 73.9379 226.494 73.8062 225.544C73.7673 225.289 73.8504 225.074 73.9737 224.898C73.9238 224.886 73.8738 224.873 73.8197 224.86C73.1613 224.689 72.844 224.513 72.5384 224.342C72.3035 224.212 72.0613 224.077 71.5344 223.895C71.3033 223.815 71.1043 223.757 70.937 223.707C70.4305 223.557 69.8173 223.352 69.6415 222.806C69.4798 222.217 69.999 221.786 70.3425 221.501C70.955 220.992 71.4293 220.721 71.744 220.542C71.8591 220.477 71.9884 220.403 72.0253 220.371C72.3184 220.111 71.4678 218.655 71.1517 218.106C70.4359 216.873 69.8165 215.807 70.7128 215.134C71.3538 214.652 72.4321 214.695 74.0047 215.268C74.4942 215.446 74.8929 215.66 75.2152 215.857C75.3032 215.622 75.4822 215.392 75.8354 215.241C76.6718 214.886 77.7708 215.299 79.1052 216.467C79.438 216.757 79.8832 217.147 80.2381 217.749C80.4049 218.033 80.5117 218.297 80.5983 218.524C80.7711 218.494 80.9671 218.487 81.1854 218.529C81.8274 218.652 82.262 219.089 82.4494 219.844C82.671 220.671 82.6974 221.383 82.722 222.012C82.7442 222.56 82.7653 223.032 82.9144 223.376C83.2025 224.011 84.0448 224.375 85.1162 224.786L87.8307 225.802Z" fill="#F2F2F2"/>
<path d="M85.8462 217.111L85.4184 214.16L85.6138 213.937C86.5183 212.903 86.9793 211.893 86.9848 210.934C86.9857 210.781 86.9765 210.629 86.9673 210.474C86.9304 209.858 86.8843 209.093 87.4006 208.202C87.6901 207.704 88.5033 206.553 89.7259 206.696C90.055 206.732 90.304 206.848 90.493 206.985C90.5207 206.951 90.5492 206.917 90.5797 206.88C90.9604 206.431 91.2619 206.239 91.5523 206.053C91.7755 205.911 92.006 205.764 92.3674 205.417C92.526 205.264 92.6495 205.13 92.7537 205.018C93.07 204.677 93.483 204.271 94.2114 204.278C94.9895 204.307 95.397 204.804 95.6672 205.133C96.1494 205.72 96.3679 206.143 96.5126 206.424C96.5652 206.526 96.6251 206.642 96.6556 206.677C96.9064 206.962 98.9449 206.696 99.7129 206.599C101.438 206.377 102.931 206.184 103.546 207.025C103.986 207.626 103.659 208.421 102.543 209.451C102.196 209.771 101.826 210.015 101.498 210.206C101.77 210.331 102.013 210.524 102.112 210.826C102.344 211.541 101.549 212.257 99.7479 212.958C99.3008 213.133 98.6987 213.367 97.8551 213.479C97.4577 213.532 97.1 213.545 96.7939 213.552C96.7874 213.689 96.7459 213.837 96.6381 213.989C96.3218 214.438 95.6635 214.652 94.6715 214.601C93.5798 214.556 92.6809 214.395 91.888 214.254C91.1956 214.132 90.599 214.028 90.1307 214.052C89.2622 214.106 88.5928 214.643 87.8073 215.34L85.8462 217.111Z" fill="#F2F2F2"/>
<path d="M89.7536 274.376L88.9533 273.989L88.0202 274.071C88.0055 274.004 87.9548 273.85 87.8782 273.61C87.4606 272.29 86.1873 268.276 85.1252 261.954C84.3839 257.541 83.9644 253.004 83.8777 248.467C83.791 243.923 84.0695 240.483 84.2926 237.718C84.4613 235.632 84.666 233.646 84.867 231.712C85.4018 226.544 85.9061 221.662 85.5308 216.257C85.4479 215.051 85.2736 212.539 83.3743 209.867C82.2725 208.317 80.7549 206.941 78.863 205.779L80.0395 204.636C82.1278 205.921 83.8067 207.445 85.0302 209.166C87.136 212.129 87.326 214.866 87.4172 216.18C87.7989 221.68 87.2891 226.609 86.7488 231.827C86.5496 233.755 86.3449 235.732 86.1771 237.809C85.9559 240.548 85.6802 243.958 85.7659 248.444C85.8508 252.927 86.2657 257.409 86.9968 261.766C88.046 268.008 89.3009 271.963 89.713 273.262C89.9324 273.956 89.9785 274.101 89.7536 274.376Z" fill="#F2F2F2"/>
<path d="M75.4 208.096C75.3226 208.096 75.2442 208.095 75.1649 208.091C73.557 208.024 72.068 207.28 70.7385 205.881C70.1152 205.223 69.7962 204.472 69.16 202.975C69.0614 202.744 68.5819 201.573 68.2906 199.962C68.0997 198.909 68.1237 198.469 68.3938 198.08C68.6935 197.647 69.1784 197.345 69.7243 197.142C69.7003 197.002 69.7196 196.858 69.798 196.711C70.1198 196.103 70.9754 196.183 71.4382 196.221C71.6724 196.244 71.9647 196.274 72.28 196.261C72.7761 196.243 73.0425 196.129 73.4463 195.958C73.8327 195.794 74.313 195.59 75.0257 195.478C76.4308 195.251 77.6082 195.559 77.9963 195.66C80.0385 196.186 81.0454 197.412 82.2107 198.833C82.4431 199.117 83.2406 200.154 83.7671 201.576C84.1469 202.602 84.0934 203.058 83.9791 203.397C83.7468 204.093 83.1982 204.492 81.8051 205.373C80.3502 206.294 79.62 206.756 78.993 207.036C77.5335 207.687 76.617 208.096 75.4 208.096Z" fill="#F2F2F2"/>
<path d="M163.85 271.879L168.795 271.879L171.147 257.145L163.849 257.145L163.85 271.879Z" fill="#FFB6B6"/>
<path d="M180.791 271.793C180.945 271.993 181.027 272.639 181.027 272.872C181.027 273.588 180.275 274.169 179.348 274.169H164.035C163.403 274.169 162.89 273.773 162.89 273.284V272.792C162.89 272.792 162.132 271.312 163.692 269.487C163.692 269.487 165.631 270.916 168.527 268.678L169.381 267.483L175.564 270.976L178.991 271.302C179.741 271.373 180.406 271.291 180.791 271.793Z" fill="#2F2E41"/>
<path d="M148.78 271.879L153.725 271.879L156.077 257.145L148.779 257.145L148.78 271.879Z" fill="#FFB6B6"/>
<path d="M165.721 271.793C165.875 271.993 165.957 272.639 165.957 272.872C165.957 273.588 165.205 274.169 164.278 274.169H148.965C148.333 274.169 147.82 273.773 147.82 273.284V272.792C147.82 272.792 147.062 271.312 148.622 269.487C148.622 269.487 150.56 270.916 153.457 268.678L154.311 267.483L160.494 270.976L163.921 271.302C164.671 271.373 165.336 271.291 165.721 271.793Z" fill="#2F2E41"/>
<path d="M169.562 208.248L174.837 224.027L172.2 264.547L159.767 265.19L159.013 241.864L157.506 265.876L144.697 263.818L143.943 210.993L169.562 208.248Z" fill="#2F2E41"/>
<path d="M118.502 155.122C116.8 152.815 113.88 151.623 111.979 152.46C110.079 153.297 109.919 155.845 111.621 158.153C112.285 159.082 113.227 159.875 114.369 160.465L121.74 170.17L127.561 167.401L119.677 158.128C119.602 157.068 119.199 156.037 118.502 155.122Z" fill="#FFB6B6"/>
<path d="M151.998 189.382C151.998 189.382 145.013 196.82 140.74 194.162C136.468 191.504 112.862 161.626 112.862 161.626L122.23 157.747L151.998 189.382Z" fill="#76239D"/>
<path d="M145.45 180.308L154.492 169.83L163.534 172.74L161.274 182.054L145.45 180.308Z" fill="#FFB6B6"/>
<path d="M146.204 177.979L162.027 177.397L172.576 179.726L174.837 222.801L143.19 220.472V197.757L138.669 186.129L146.204 177.979Z" fill="#76239D"/>
<path d="M172.318 207.035C171.762 205.783 171.541 204.46 171.684 203.14C172.089 199.416 172.165 192.119 167.251 188.822L164.476 186.499C164.418 186.451 164.353 186.409 164.294 186.362L168.887 178.023L166.112 177.112L161.85 184.852C159.96 183.963 157.779 183.471 155.523 183.471C152.918 183.471 150.428 184.127 148.37 185.283L145.771 177.926L142.863 178.539L146.113 186.929C145.995 187.041 145.866 187.143 145.754 187.259L144.166 188.906C143.779 189.307 143.353 189.679 142.89 190.029C141.916 190.766 140.014 192.557 139.995 195.313C139.989 196.256 139.738 197.189 139.366 198.087L137.479 202.643C137.302 203.071 137.163 203.507 137.068 203.95C136.236 207.852 133.355 226.234 153.043 225.866C171.396 225.523 172.604 216.89 172.497 214.023C172.474 213.401 172.546 212.783 172.696 212.172C172.972 211.05 173.219 209.065 172.318 207.035Z" fill="#3F3D56"/>
<path d="M255.229 20.9652L256.945 41.4356L235.364 45.261L236.867 28.7097L255.229 20.9652Z" fill="#FFB6B6"/>
<path d="M256.872 269.749L247.144 269.748L242.517 240.762L256.874 240.763L256.872 269.749Z" fill="#FFB6B6"/>
<path d="M223.544 269.578C223.241 269.972 223.081 271.244 223.081 271.702C223.081 273.111 224.559 274.253 226.382 274.253H256.508C257.752 274.253 258.76 273.474 258.76 272.513V271.544C258.76 271.544 260.251 268.632 257.182 265.043C257.182 265.043 253.369 267.853 247.671 263.451L245.99 261.1L233.827 267.972L227.085 268.613C225.61 268.753 224.302 268.591 223.544 269.578Z" fill="#2F2E41"/>
<path d="M283.244 269.749L273.517 269.748L268.889 240.762L283.246 240.763L283.244 269.749Z" fill="#FFB6B6"/>
<path d="M249.916 269.578C249.613 269.972 249.453 271.244 249.453 271.702C249.453 273.111 250.932 274.253 252.755 274.253H282.88C284.124 274.253 285.133 273.474 285.133 272.513V271.544C285.133 271.544 286.623 268.632 283.555 265.043C283.555 265.043 279.742 267.853 274.043 263.451L272.363 261.1L260.2 267.972L253.458 268.613C251.983 268.753 250.675 268.591 249.916 269.578Z" fill="#2F2E41"/>
<path d="M289.369 131.994C289.369 131.994 297.658 140.143 296.151 144.8C294.644 149.457 284.095 256.562 284.095 256.562L269.025 255.98L259.983 159.934L257.657 256.562L243.406 255.98L225.321 136.068L289.369 131.994Z" fill="#2F2E41"/>
<path d="M202.244 157.978C200.819 162.197 196.846 165.049 193.37 164.348C189.895 163.647 188.233 159.659 189.66 155.438C190.199 153.746 191.256 152.179 192.74 150.867L199.07 133.05L209.83 135.522L202.448 152.825C202.913 154.53 202.844 156.297 202.244 157.978Z" fill="#FFB6B6"/>
<path d="M237.698 37.9526C249.59 37.9526 259.229 30.5058 259.229 21.3197C259.229 12.1336 249.59 4.6868 237.698 4.6868C225.807 4.6868 216.168 12.1336 216.168 21.3197C216.168 30.5058 225.807 37.9526 237.698 37.9526Z" fill="#FFB6B6"/>
<path d="M235.117 42.3505L257.722 38.8579L282.588 48.7536L287.862 112.202L294.644 136.068L224.568 136.65L227.582 104.635L223.061 53.9925L235.117 42.3505Z" fill="#E6E6E6"/>
<path d="M229.843 55.7388C229.843 55.7388 217.786 52.8283 213.265 58.0672C208.744 63.306 200.456 110.456 200.456 110.456L192.167 145.964L207.237 147.71L232.103 85.4258L229.843 55.7388Z" fill="#E6E6E6"/>
<path d="M339.502 137.57C341.959 141.496 341.328 145.657 338.093 146.865C334.859 148.072 330.247 145.868 327.79 141.941C326.781 140.382 326.27 138.66 326.299 136.918L316.163 120.183L326.43 116.676L335.332 133.545C337.118 134.611 338.548 135.991 339.502 137.57Z" fill="#FFB6B6"/>
<path d="M273.151 49.3569C273.151 49.3569 283.978 44.3316 289.971 48.5987C295.964 52.8658 318.416 97.1746 318.416 97.1746L337.314 130.17L323.202 134.613L280.019 78.6181L273.151 49.3569Z" fill="#E6E6E6"/>
<path d="M325.264 274.307C325.264 274.691 324.865 275 324.368 275H0.896668C0.399379 275 0 274.691 0 274.307C0 274.121 0.0904655 273.958 0.241128 273.836H67.8454C69.2846 273.836 70.6936 273.76 72.0801 273.615H324.368C324.865 273.615 325.264 273.923 325.264 274.307Z" fill="#3F3D56"/>
<path d="M192.823 159.812C194.168 157.368 196.89 155.923 198.903 156.585C200.916 157.246 201.457 159.763 200.112 162.207C199.592 163.189 198.775 164.061 197.729 164.749L191.862 175.048L185.665 172.818L192.106 162.902C192.022 161.843 192.268 160.783 192.823 159.812Z" fill="#FFB6B6"/>
<path d="M153.638 177.566C161.292 177.566 167.497 172.773 167.497 166.86C167.497 160.947 161.292 156.153 153.638 156.153C145.984 156.153 139.779 160.947 139.779 166.86C139.779 172.773 145.984 177.566 153.638 177.566Z" fill="#FFB6B6"/>
<path d="M171.069 179.726L184.632 175.651L189.153 163.427L198.949 166.337L191.414 183.8L171.069 189.805V179.726Z" fill="#76239D"/>
<path d="M151.816 178.764L160.081 173.568C160.081 173.568 159.299 165.782 162.271 165.082C165.242 164.381 168.341 161.585 168.341 161.585C168.341 161.585 163.423 153.002 154.766 154.304C146.109 155.607 148.084 153.625 142.749 155.808C137.415 157.991 136.164 160.903 136.812 163.997C137.461 167.092 135.53 174.779 141.991 175.175C148.453 175.571 151.816 178.764 151.816 178.764Z" fill="#2F2E41"/>
<path d="M224.658 25.0435C223.087 22.83 223.903 21.7734 222.485 20.9081C222.485 20.908 221.915 20.5598 217.62 20.1163C217.21 14.688 216.072 13.9625 216.072 13.9625C214.76 13.1264 212.673 13.2429 211.343 13.6227C208.53 14.4259 208.628 16.542 206.76 16.8305C204.179 17.229 211.214 13.8212 211.132 10.2162C211.065 7.27564 213.791 4.59191 214.741 4.80139C215.683 5.0091 218.208 2.89086 219.441 3.00207C220.283 3.07801 223.855 2.132 224.774 2.27993C225.778 2.4415 228.983 3.99585 229.154 3.69647C230.343 1.61611 230.12 1.00475 231.005 0.443212C232.573 -0.551826 234.877 0.350647 238.571 0.986833C246.172 2.29579 247.716 0.420458 251.518 1.99084C253.439 2.78412 254.917 4.69504 257.795 8.48449C261.82 13.784 263.833 16.4337 263.544 19.3616C263.251 22.3476 261.399 22.0426 260.12 26.411C258.697 31.2737 260.408 33.643 258.119 35.11C256.35 36.2439 241.681 36.3312 240.04 35.139C237.231 33.0978 241.622 28.8618 238.639 25.3848C236.808 23.2506 232.801 22.1039 230.821 22.9808C228.581 23.9723 229.41 27.3394 227.884 27.5597C226.578 27.7483 224.932 25.4292 224.658 25.0435Z" fill="#2F2E41"/>
<path d="M120.304 160.357C123.304 158.4 122.507 153.862 118.526 150.221C116.783 148.627 114.718 147.47 112.696 146.836L110.373 144.764L80.3631 115.716C80.3631 115.716 63.7444 86.82 58.8385 83.6982C53.9328 80.5764 48.161 82.2017 48.161 82.2017L43.6575 86.5059L71.7205 126.852L100.441 149.181L104.318 152.304C104.789 153.95 105.922 155.715 107.665 157.309C111.646 160.95 117.305 162.315 120.304 160.357Z" fill="#FFB6B6"/>
<path d="M63.6572 89.071L71.1776 97.5913L81.9738 109.935L62.5749 115.119L45.447 92.415L63.6572 89.071Z" fill="#E6E6E6"/>
<path d="M71.2926 60.0732L65.8459 76.1149L45.0805 72.9592C45.0805 72.9592 53.2505 61.388 51.208 56.1284L71.2926 60.0732Z" fill="#FFB6B6"/>
<path d="M49.372 268.887L61.8768 268.886L67.8254 231.625L49.3695 231.626L49.372 268.887Z" fill="#FFB6B6"/>
<path d="M92.215 268.668C92.6043 269.175 92.8098 270.81 92.8098 271.399C92.8098 273.21 90.9096 274.678 88.5656 274.678H49.8397C48.2407 274.678 46.9443 273.676 46.9443 272.441V271.195C46.9443 271.195 45.0286 267.452 48.9727 262.838C48.9727 262.838 53.8748 266.451 61.1997 260.792L63.3598 257.769L78.9956 266.603L87.6623 267.427C89.5584 267.608 91.2396 267.399 92.215 268.668Z" fill="#2F2E41"/>
<path d="M84.0934 161.052L66.8623 251.635H45.2436L48.1182 199.928L49.6312 172.74L45.2436 159.799C45.2436 159.799 43.2431 156.923 41.5578 153.436C39.6582 149.501 38.1578 144.783 40.3852 142.546C41.2048 141.722 43.3355 141.111 46.2312 140.657C48.0006 140.377 50.0599 140.16 52.2831 139.991C65.0678 139.014 83.2529 139.624 83.2529 139.624L83.7152 151.41L83.9716 157.991L84.0934 161.052Z" fill="#2F2E41"/>
<path d="M27.3444 264.457L39.7164 265.862L52.6176 229.665L34.3578 227.592L27.3444 264.457Z" fill="#FFB6B6"/>
<path d="M69.773 269.055C70.0628 269.6 69.9582 271.24 69.8473 271.823C69.5063 273.615 67.35 274.854 65.0309 274.59L26.7169 270.239C25.1349 270.059 24.0409 268.922 24.2735 267.7L24.508 266.468C24.508 266.468 23.3175 262.549 28.0884 258.427C28.0884 258.427 32.2581 262.553 40.5706 257.777L43.2769 255.029L57.0831 265.526L65.5024 267.315C67.3444 267.707 69.0469 267.69 69.773 269.055Z" fill="#2F2E41"/>
<path d="M84.3646 145.946L82.0012 161.669L69.1124 194.803L47.8952 249.353L26.5088 246.925L45.7029 169.363L43.8024 156.064C43.8024 156.064 43.1834 154.742 42.474 152.806C41.0657 148.977 39.2994 142.742 41.2426 139.561C41.505 139.129 41.8344 138.754 42.2419 138.45C43.0062 137.877 44.5595 137.53 46.6407 137.345C55.3396 136.586 73.2545 138.758 81.2261 139.824L84.3646 145.946Z" fill="#2F2E41"/>
<path d="M67.8884 71.3813L91.3772 94.2606L87.1609 118.114L83.5476 142.386L40.9955 137.389C40.9955 137.389 50.1867 120.296 51.208 119.507C52.2292 118.718 54.7944 120.666 53.0012 118.114C51.208 115.562 49.1655 115.562 50.8676 114.247C52.5696 112.932 37.5913 95.8384 37.5913 86.6341C37.5913 77.4298 44.74 70.0664 44.74 70.0664L67.8884 71.3813Z" fill="#E6E6E6"/>
<path d="M62.4081 63.1026C71.1471 63.1026 78.2313 57.6298 78.2313 50.8788C78.2313 44.1278 71.1471 38.655 62.4081 38.655C53.6692 38.655 46.5849 44.1278 46.5849 50.8788C46.5849 57.6298 53.6692 63.1026 62.4081 63.1026Z" fill="#FFB6B6"/>
<path d="M61.6687 74.2503C61.6687 74.2503 64.0364 59.7772 64.4555 55.5683C64.8746 51.3595 72.5651 44.7882 72.5651 44.7882L78.0133 48.1877C78.0133 48.1877 82.6234 48.1877 79.4801 43.0075C76.3369 37.8274 70.4696 37.018 70.4696 37.018C70.4696 37.018 69.841 30.219 58.9445 31.0284C48.0481 31.8378 43.2285 38.6368 43.2285 38.6368C43.2285 38.6368 42.5999 30.0571 35.6848 36.3704C28.7697 42.6838 24.7883 45.2738 32.1225 47.3783C39.4566 49.4827 44.9049 47.8639 44.9049 47.8639C44.9049 47.8639 37.7803 48.9971 39.0375 52.8822C40.2948 56.7673 22.4833 74.4122 30.6557 76.3548C38.828 78.2973 57.0586 82.9918 59.1541 79.9161C61.2495 76.8404 61.6687 74.2503 61.6687 74.2503Z" fill="#2F2E41"/>
<path d="M126.895 161.57C129.916 159.632 129.169 155.089 125.227 151.422C123.501 149.817 121.449 148.646 119.434 147.999L117.133 145.912L87.4398 116.671C87.4398 116.671 71.1351 87.6686 66.2633 84.5151C61.3916 81.3617 55.6023 82.9496 55.6023 82.9496L51.0524 87.2245L78.6766 127.751L107.154 150.265L110.997 153.413C111.45 155.062 112.563 156.835 114.289 158.44C118.231 162.106 123.875 163.507 126.895 161.57Z" fill="#FFB6B6"/>
<path d="M49.3286 80.7016C49.3286 80.7016 56.5976 109.842 64.8692 114.138L81.3522 104.209C81.3522 104.209 82.7946 104.161 80.11 101.819C77.4254 99.4761 78.1128 94.4455 78.1128 94.4455C78.1128 94.4455 79.3208 95.6529 76.6922 93.9768C74.0637 92.3006 76.5107 80.7734 76.5107 80.7734L49.3286 80.7016Z" fill="#E6E6E6"/>
<path d="M169.382 200.929C169.034 200.929 168.722 200.742 168.646 200.469L167.817 197.496C166.6 193.123 161.709 189.93 155.925 189.731C150.566 189.545 145.599 191.997 143.564 195.83L141.485 199.744C141.328 200.042 140.888 200.184 140.502 200.062C140.117 199.94 139.933 199.6 140.092 199.303L142.17 195.388C144.447 191.102 149.995 188.365 155.992 188.568C162.46 188.791 167.928 192.361 169.291 197.251L170.119 200.224C170.207 200.539 169.948 200.848 169.541 200.916C169.488 200.925 169.434 200.929 169.382 200.929Z" fill="#FFB6B6"/>
<path d="M170.271 210.396C170.249 210.396 170.227 210.395 170.204 210.394L142.32 208.473C141.906 208.444 141.6 208.162 141.637 207.841C141.674 207.521 142.036 207.286 142.454 207.313L170.338 209.234C170.752 209.263 171.058 209.545 171.021 209.866C170.986 210.168 170.658 210.396 170.271 210.396Z" fill="#FFB6B6"/>
</g>
<defs>
<clipPath id="clip0_532_380">
<rect width="341" height="275" fill="white"/>
</clipPath>
</defs>
</svg>
