<svg width="341" height="275" viewBox="0 0 341 275" fill="none" xmlns="http://www.w3.org/2000/svg">
<g clip-path="url(#clip0_532_450)">
<path d="M194.262 243.286C191.904 239.983 188.712 237.567 184.699 236.663C181.2 235.874 177.601 236.008 174.044 236.036L129.068 236.383C125.216 236.412 121.522 239.75 121.701 243.751C121.879 247.717 124.939 251.151 129.068 251.119C142.243 251.017 155.418 250.916 168.593 250.814C171.699 250.79 174.807 250.734 177.913 250.744C178.61 250.746 179.305 250.783 180.002 250.791C180.171 250.793 180.293 250.792 180.379 250.788C180.4 250.794 180.419 250.8 180.447 250.808C180.81 250.908 181.183 250.977 181.549 251.072C181.421 251.075 181.786 251.303 181.969 251.381C181.995 251.43 182.048 251.519 182.138 251.655C182.263 251.89 182.634 252.603 182.649 252.58C183.206 253.989 183.666 255.434 184.024 256.906C184.88 260.151 185.069 260.829 185.192 263.874C185.347 267.72 188.468 271.425 192.558 271.242C196.416 271.069 200.091 267.999 199.924 263.874C199.643 256.923 198.423 249.115 194.262 243.286Z" fill="#E6E6E6"/>
<path d="M131.712 259.913C130.867 254.792 130.038 249.668 129.177 244.551C128.303 239.359 126.518 234.605 122.479 231.197C121.4 230.287 120.281 229.437 119.157 228.59C118.762 228.292 118.367 227.993 117.977 227.689C117.954 227.671 117.939 227.659 117.918 227.644C117.876 227.607 117.824 227.563 117.755 227.504C116.071 226.079 114.445 224.59 112.895 223.008C111.519 221.603 110.203 220.138 108.947 218.613C108.634 218.232 108.324 217.848 108.018 217.46C107.965 217.393 107.682 217.027 107.496 216.788C107.322 216.549 107.005 216.117 106.952 216.042C106.594 215.536 106.244 215.027 105.899 214.512C103.553 210.996 101.521 207.28 99.8279 203.407C99.66 203.023 99.496 202.636 99.3361 202.248C99.2931 202.129 99.2376 201.977 99.1639 201.774C98.8226 200.835 98.482 199.898 98.17 198.948C97.5071 196.931 96.9371 194.883 96.4602 192.807C96.2244 191.781 96.0121 190.75 95.8233 189.714C95.726 189.182 95.6349 188.648 95.5502 188.113C95.5363 188.024 95.4535 187.447 95.4047 187.121C95.3688 186.793 95.3018 186.213 95.2928 186.123C95.2389 185.584 95.191 185.044 95.1492 184.504C95.055 183.288 94.9913 182.07 94.9581 180.851C94.9015 178.683 94.9403 176.515 95.0745 174.347C95.151 173.13 95.2598 171.915 95.3938 170.702C95.4019 170.628 95.4081 170.569 95.414 170.515C95.4221 170.461 95.4315 170.4 95.4428 170.323C95.5419 169.653 95.6462 168.984 95.7629 168.317C96.2047 165.784 96.7794 163.277 97.4844 160.805C97.8182 159.635 98.1808 158.476 98.5722 157.325C98.7467 156.815 98.9266 156.306 99.1122 155.799C99.1 155.832 99.6564 154.411 99.6638 154.363C101.871 149.146 105.482 144.39 105.487 138.463C105.49 134.451 102.097 130.607 98.1208 130.793C96.1386 130.867 94.2627 131.709 92.8886 133.14C91.5144 134.571 90.7493 136.479 90.7546 138.463C90.7546 138.553 90.7541 138.63 90.7539 138.705C90.7168 138.83 90.6858 138.934 90.6579 139.026C90.2274 139.962 89.7 140.851 89.2275 141.764C87.9335 144.261 86.8291 146.841 85.78 149.458C84.0624 153.72 82.7477 158.134 81.8532 162.641C79.9087 172.517 79.7577 182.663 81.4076 192.592C84.2637 210.005 93.6824 226.674 106.777 237.878C107.913 238.85 109.077 239.79 110.252 240.71C110.738 241.091 111.228 241.465 111.721 241.837C111.954 242.012 112.919 242.773 112.495 242.404C113.407 243.184 113.791 243.576 114.026 244.15C114.06 244.282 114.106 244.462 114.169 244.707C114.334 245.354 114.491 246 114.621 246.656C115.761 252.39 116.553 258.22 117.505 263.991C118.16 267.956 123.04 270.537 126.567 269.349C130.672 267.965 132.413 264.161 131.712 259.913Z" fill="#E6E6E6"/>
<path d="M195.007 274.785C191.913 274.793 188.942 273.573 186.747 271.393C184.551 269.213 183.309 266.251 183.294 263.157V254.752C174.497 255.737 144.371 255.509 135.736 254.121V262.821C135.713 265.913 134.469 268.87 132.275 271.048C130.081 273.226 127.115 274.449 124.024 274.449C120.932 274.449 117.967 273.226 115.773 271.048C113.579 268.87 112.334 265.913 112.311 262.821V245.74C100.615 239.241 90.8651 229.738 84.0669 218.211C77.2686 206.685 73.6686 193.553 73.6384 180.17C73.6384 157.223 84.0354 135.817 102.164 121.441C113.95 112.062 128.271 106.421 143.287 105.243C145.325 105.083 147.375 105.002 149.382 105.002C156.45 105.002 188.339 106.095 196.341 108.397L214.585 90.2894C214.853 90.0196 215.196 89.8358 215.569 89.7614C215.942 89.687 216.329 89.7255 216.68 89.8718C217.034 90.0126 217.337 90.2571 217.549 90.5733C217.761 90.8894 217.873 91.2624 217.87 91.6432V94.5223L221.422 91.0031C221.69 90.733 222.032 90.5489 222.405 90.4744C222.778 90.3999 223.164 90.4384 223.515 90.5849C223.869 90.7256 224.173 90.9701 224.385 91.2864C224.598 91.6027 224.71 91.9759 224.706 92.3569V124.53C233.861 132.785 240.839 143.171 245.021 154.769C249.202 166.366 250.46 178.816 248.681 191.016C246.902 203.216 242.142 214.788 234.822 224.707C227.502 234.627 217.85 242.587 206.719 247.883V263.157C206.704 266.251 205.462 269.213 203.266 271.393C201.071 273.573 198.1 274.793 195.007 274.785ZM184.215 253.708V263.157C184.238 266.005 185.385 268.728 187.407 270.733C189.428 272.738 192.16 273.864 195.007 273.864C197.853 273.864 200.585 272.738 202.606 270.733C204.628 268.728 205.775 266.005 205.798 263.157V247.301L206.061 247.176C218.55 241.248 229.153 231.974 236.691 220.383C246.297 205.593 250.292 187.851 247.953 170.369C245.614 152.888 237.095 136.821 223.939 125.078L223.786 124.941V92.3569C223.789 92.1589 223.732 91.9647 223.621 91.8004C223.511 91.6361 223.352 91.5096 223.168 91.4379C222.985 91.3595 222.782 91.3383 222.586 91.3772C222.39 91.4161 222.211 91.5132 222.072 91.6558L216.949 96.7308V91.6432C216.952 91.4453 216.895 91.251 216.784 91.0867C216.674 90.9224 216.516 90.7959 216.331 90.7243C216.147 90.6459 215.944 90.625 215.748 90.6641C215.552 90.7033 215.373 90.8007 215.233 90.9437L196.598 109.439L196.333 109.356C188.895 107.028 156.504 105.923 149.382 105.923C147.399 105.923 145.373 106.004 143.359 106.162C128.526 107.325 114.379 112.897 102.736 122.162C84.8291 136.363 74.5591 157.506 74.5591 180.17C74.5897 193.434 78.1704 206.449 84.9294 217.861C91.6883 229.273 101.379 238.667 112.994 245.066L113.232 245.198V262.821C113.256 265.668 114.403 268.391 116.424 270.396C118.446 272.401 121.177 273.526 124.024 273.526C126.87 273.526 129.602 272.401 131.623 270.396C133.644 268.391 134.791 265.668 134.815 262.821V253.019L135.361 253.121C143.121 254.582 175.798 254.812 183.695 253.776L184.215 253.708Z" fill="#3F3D56"/>
<path d="M132.592 54.8538L81.6077 70.1793C79.9861 70.6687 78.6251 71.782 77.8235 73.2745C77.022 74.7671 76.8456 76.5168 77.3331 78.1394C77.8205 79.7619 78.932 81.1246 80.4232 81.928C81.9145 82.7314 83.6637 82.9098 85.2864 82.424L129.903 69.0096L130.837 68.7287C131.027 63.9112 132.333 59.2037 134.654 54.9781C134.363 54.8471 134.051 54.7661 133.733 54.7387C133.349 54.7014 132.961 54.7406 132.592 54.8538Z" fill="#76239D"/>
<path d="M84.4046 85.6914C83.7279 85.6898 83.0687 85.4754 82.5203 85.0787C81.972 84.6819 81.5621 84.1228 81.3487 83.4804L78.1605 73.8578C78.0274 73.4559 77.9747 73.0318 78.0054 72.6096C78.0361 72.1873 78.1497 71.7753 78.3397 71.397C78.5296 71.0187 78.7923 70.6815 79.1125 70.4047C79.4328 70.128 79.8044 69.917 80.2062 69.7839L121.702 56.0286C122.103 55.8955 122.527 55.8427 122.95 55.8734C123.372 55.9041 123.784 56.0177 124.162 56.2076C124.54 56.3976 124.877 56.6602 125.154 56.9804C125.431 57.3007 125.642 57.6723 125.775 58.0741L128.963 67.6968C129.228 68.4882 129.175 69.3519 128.815 70.1048C128.454 70.8577 127.815 71.4408 127.032 71.7304C126.994 71.7448 126.955 71.7584 126.916 71.7711L85.4216 85.5259C85.0937 85.6353 84.7503 85.6911 84.4046 85.6914Z" fill="#2F2E41"/>
<path d="M162.116 37.7646C153.741 37.7679 145.696 41.0306 139.684 46.8622C133.671 52.6938 130.164 60.6367 129.903 69.0096C129.893 69.3366 129.889 69.6682 129.889 69.9997C129.889 76.3752 131.779 82.6075 135.32 87.9086C138.861 93.2096 143.895 97.3413 149.783 99.7811C155.672 102.221 162.152 102.859 168.404 101.615C174.655 100.372 180.397 97.3015 184.904 92.7934C189.412 88.2852 192.481 82.5415 193.724 76.2885C194.968 70.0355 194.33 63.5541 191.89 57.6639C189.451 51.7737 185.321 46.7393 180.021 43.1972C174.721 39.6552 168.49 37.7646 162.116 37.7646ZM162.116 101.314C153.816 101.305 145.858 98.0032 139.989 92.1326C134.12 86.2619 130.818 78.3021 130.81 69.9997C130.81 69.5715 130.819 69.1478 130.837 68.7287C131.087 62.5948 133.133 56.6694 136.722 51.6895C140.311 46.7095 145.285 42.8947 151.024 40.7193C156.763 38.5439 163.015 38.104 169.003 39.4542C174.99 40.8044 180.448 43.8853 184.699 48.3135C188.95 52.7418 191.805 58.3223 192.911 64.3609C194.016 70.3996 193.323 76.63 190.916 82.2775C188.51 87.925 184.497 92.7405 179.377 96.125C174.256 99.5096 168.254 101.314 162.116 101.314Z" fill="#3F3D56"/>
<path d="M189.279 69.9997C189.279 77.2055 186.418 84.1162 181.323 89.2115C176.229 94.3068 169.32 97.1693 162.116 97.1693C154.912 97.1693 148.003 94.3068 142.909 89.2115C137.815 84.1162 134.953 77.2055 134.953 69.9997C134.953 69.1386 134.995 68.2913 135.073 67.4531C135.727 60.4988 139.035 54.0637 144.308 49.4842C149.581 44.9047 156.415 42.5325 163.391 42.8602C170.366 43.1879 176.948 46.1903 181.769 51.2441C186.59 56.2978 189.279 63.0146 189.279 69.9997Z" fill="#E6E6E6"/>
<path d="M170.205 71.8049C169.547 70.939 168.681 70.2532 167.687 69.8109C166.461 69.2943 165.196 68.8784 163.903 68.5676V61.1719C165.89 61.4717 167.755 62.3219 169.285 63.6264L170.786 60.4259C169.922 59.6567 168.931 59.0442 167.857 58.6161C166.667 58.134 165.417 57.8134 164.142 57.6629V53.9144H160.666V57.6997C159.324 57.8505 158.029 58.2854 156.868 58.9753C155.819 59.5963 154.936 60.4622 154.294 61.4989C153.682 62.5105 153.365 63.6734 153.378 64.8559C153.318 66.1374 153.689 67.402 154.432 68.4478C155.116 69.3533 156.019 70.0696 157.056 70.5293C158.302 71.0612 159.589 71.4879 160.906 71.8049V78.892C158.56 78.715 156.325 77.823 154.501 76.3362L153.001 79.5413C154.02 80.3843 155.179 81.042 156.426 81.4846C157.792 81.9735 159.219 82.2711 160.666 82.3688V86.085H164.142V82.2997C166.073 82.0887 167.883 81.2583 169.303 79.9327C169.928 79.333 170.422 78.6099 170.753 77.8093C171.085 77.0087 171.246 76.148 171.227 75.2817C171.285 74.041 170.925 72.8168 170.205 71.8049ZM160.906 67.7847C160.059 67.5279 159.272 67.1052 158.59 66.5414C158.319 66.3009 158.106 66.0036 157.964 65.6708C157.823 65.338 157.756 64.9779 157.77 64.6165C157.745 63.7963 158.046 62.9996 158.608 62.4015C159.231 61.7739 160.034 61.3568 160.906 61.2087V67.7847ZM166.085 77.5842C165.498 78.1867 164.733 78.5853 163.903 78.7216V72.6246C164.696 72.8375 165.438 73.2088 166.085 73.716C166.33 73.9253 166.525 74.1872 166.655 74.4822C166.785 74.7772 166.846 75.0977 166.835 75.4198C166.867 76.2101 166.599 76.9833 166.085 77.5842Z" fill="#76239D"/>
<path d="M85.8843 124.691C85.1726 124.69 84.4812 124.454 83.9172 124.019C83.3533 123.585 82.9483 122.977 82.7652 122.289L81.0295 115.718C80.8122 114.892 80.9313 114.013 81.3607 113.275C81.7901 112.537 82.4947 111.999 83.3199 111.78L138.079 97.3063C138.905 97.0906 139.784 97.2111 140.521 97.6413C141.259 98.0715 141.796 98.7765 142.016 99.602L143.486 105.169L143.211 105.191C129.167 106.283 115.729 111.376 104.489 119.867L104.409 119.906L86.7019 124.585C86.4351 124.655 86.1603 124.691 85.8843 124.691Z" fill="#2F2E41"/>
<path d="M76.8152 157.15C70.3916 156.201 64.2482 153.877 58.8037 150.338C56.1064 148.586 53.6093 146.543 51.3574 144.246C49.1347 141.979 47.0083 139.401 45.9073 136.381C44.8481 133.587 44.9027 130.493 46.0598 127.738C47.2012 125 49.3815 122.826 52.1226 121.694C54.8802 120.594 58.2118 120.476 60.8955 121.681C62.1744 122.241 63.281 123.132 64.1019 124.262C64.4834 124.783 64.7659 125.37 64.9353 125.993C65.0925 126.558 65.1068 127.152 64.9769 127.724C64.8195 128.295 64.542 128.825 64.163 129.279C63.7839 129.734 63.312 130.102 62.7791 130.359C61.6061 130.961 60.3351 131.349 59.0259 131.504C57.7091 131.684 55.8176 131.847 54.759 130.79C54.5411 130.581 54.3697 130.328 54.256 130.048C54.1764 129.834 54.1492 129.604 54.1766 129.377C54.1612 129.477 54.2405 129.159 54.236 129.172C54.2192 129.219 54.1467 129.333 54.2498 129.158C54.282 129.1 54.3178 129.044 54.3571 128.99C54.3221 129.036 54.2453 129.111 54.3825 128.982C54.4959 128.858 54.6417 128.767 54.8034 128.722C54.8671 128.703 54.9318 128.688 54.9957 128.671C55.1581 128.627 54.8338 128.673 55 128.668C55.0641 128.666 55.129 128.668 55.1929 128.665C55.3558 128.657 55.0321 128.62 55.1883 128.659C55.2489 128.675 55.309 128.69 55.3687 128.708C55.4986 128.749 55.2768 128.613 55.3648 128.715C55.4679 128.835 55.2565 128.599 55.3737 128.715C55.432 128.772 55.487 128.833 55.5384 128.896C55.7417 129.097 56.0158 129.209 56.3015 129.209C56.5871 129.209 56.8613 129.097 57.0646 128.896C57.2609 128.691 57.3705 128.417 57.3705 128.133C57.3705 127.849 57.2609 127.575 57.0646 127.37C56.0004 126.05 53.8984 126.376 52.822 127.491C51.4491 128.914 51.9927 131.168 53.3282 132.409C54.8399 133.813 56.9811 133.911 58.9258 133.675C60.5692 133.518 62.1708 133.065 63.6536 132.339C65.1269 131.615 66.2792 130.37 66.8874 128.845C67.1619 128.031 67.2606 127.168 67.1767 126.313C67.0929 125.458 66.8285 124.631 66.401 123.886C64.6841 120.657 61.1288 119.002 57.6147 118.715C55.8055 118.573 53.9861 118.792 52.2619 119.358C50.5377 119.924 48.9428 120.827 47.5696 122.013C44.9228 124.397 43.293 127.706 43.0171 131.258C42.7104 134.94 44.1387 138.516 46.2211 141.488C48.4011 144.507 51.0026 147.198 53.9462 149.479C59.7008 154.074 66.4509 157.259 73.6564 158.777C74.5135 158.954 75.3751 159.105 76.2414 159.232C76.517 159.298 76.8078 159.258 77.0544 159.118C77.301 158.977 77.485 158.749 77.5689 158.478C77.6429 158.202 77.6053 157.908 77.4642 157.659C77.3232 157.411 77.09 157.228 76.8152 157.15Z" fill="#3F3D56"/>
<path d="M179.66 110.236C170.248 110.103 160.867 110.342 151.515 110.952C148.318 111.161 145.552 112.291 145.552 114.191C145.552 115.779 148.296 117.639 151.515 117.429C160.862 116.818 170.244 116.579 179.66 116.712C187.336 116.821 187.332 110.344 179.66 110.236Z" fill="#CCCCCC"/>
<path d="M165.75 116.391C164.732 116.391 140.84 116.353 140.84 113.052C140.84 109.751 164.732 109.713 165.75 109.713C166.767 109.713 190.659 109.751 190.659 113.052C190.659 116.353 166.767 116.391 165.75 116.391ZM141.774 113.052C142.428 114.053 151.21 115.47 165.75 115.47C180.289 115.47 189.071 114.053 189.725 113.052C189.071 112.052 180.289 110.634 165.75 110.634C151.21 110.634 142.428 112.052 141.774 113.052Z" fill="#3F3D56"/>
<path d="M241.555 203.173C246.844 203.026 253.426 202.843 258.497 199.137C260.008 197.989 261.248 196.524 262.133 194.845C263.017 193.166 263.524 191.314 263.617 189.419C263.721 186.493 262.664 183.938 260.641 182.229C257.992 179.99 254.125 179.465 249.956 180.69L254.275 149.124L251.105 148.689L246.028 185.8L248.675 184.585C251.744 183.177 255.957 182.46 258.575 184.673C259.218 185.251 259.719 185.97 260.039 186.774C260.359 187.578 260.489 188.444 260.42 189.307C260.342 190.717 259.962 192.094 259.304 193.345C258.647 194.595 257.728 195.689 256.61 196.552C252.663 199.436 247.417 199.808 241.466 199.974L241.555 203.173Z" fill="#3F3D56"/>
<path d="M232.79 151.846H215.556V155.047H232.79V151.846Z" fill="#3F3D56"/>
<path d="M93.6827 139.411C92.9156 139.409 92.1744 139.133 91.592 138.634C91.0096 138.134 90.6239 137.444 90.5041 136.686L89.4522 129.971C89.3208 129.127 89.5298 128.265 90.0331 127.574C90.5365 126.883 91.2933 126.421 92.1373 126.288L148.089 117.518C148.934 117.387 149.795 117.596 150.486 118.1C151.176 118.603 151.639 119.36 151.772 120.204L152.824 126.919C152.955 127.764 152.746 128.626 152.243 129.316C151.74 130.007 150.983 130.47 150.139 130.603L94.1869 139.372C94.0201 139.398 93.8515 139.411 93.6827 139.411Z" fill="#2F2E41"/>
<path d="M70.527 60.7193C83.4946 60.7193 94.0069 50.2044 94.0069 37.2337C94.0069 24.263 83.4946 13.7481 70.527 13.7481C57.5593 13.7481 47.047 24.263 47.047 37.2337C47.047 50.2044 57.5593 60.7193 70.527 60.7193Z" fill="#76239D"/>
<path d="M83.8209 43.3105C84.5713 43.0479 85.2568 42.6277 85.8313 42.0781C86.2115 41.6862 86.5013 41.216 86.6806 40.7003C86.86 40.1846 86.9244 39.6359 86.8694 39.0927C86.8375 38.7055 86.7165 38.3309 86.5158 37.9983C86.3152 37.6656 86.0404 37.3839 85.7129 37.1751C84.8631 36.6524 83.7403 36.6721 82.6066 37.1978L82.4758 28.0302L81.5552 28.0433L81.7089 38.8208L82.4098 38.361C83.2225 37.8287 84.3903 37.4427 85.2304 37.9596C85.4382 38.0965 85.6117 38.2794 85.7373 38.4942C85.8628 38.709 85.9372 38.9499 85.9546 39.1982C85.9933 39.6029 85.9444 40.0111 85.8113 40.3953C85.6781 40.7794 85.4638 41.1303 85.1829 41.4241C84.1848 42.4147 82.7074 42.7466 81.0213 43.0502L81.1844 43.9565C82.0808 43.8203 82.9631 43.6041 83.8209 43.3105Z" fill="#2F2E41"/>
<path d="M91.957 27.3867L87.0537 28.1295L87.1916 29.04L92.0949 28.2972L91.957 27.3867Z" fill="#2F2E41"/>
<path d="M76.4801 29.7306L71.5768 30.4734L71.7147 31.3839L76.618 30.6411L76.4801 29.7306Z" fill="#2F2E41"/>
<path d="M86.0435 139.001C85.1991 138.999 84.3753 138.74 83.6816 138.258C82.9879 137.776 82.4573 137.095 82.1604 136.304L65.9716 92.9394C63.9929 87.6209 64.2042 81.7346 66.5592 76.5718C68.9141 71.409 73.2203 67.3913 78.533 65.4003L91.6964 60.4839C92.2054 60.2925 92.7472 60.2037 93.2906 60.2226C93.8341 60.2414 94.3684 60.3676 94.863 60.5939C95.3563 60.8143 95.8007 61.1309 96.1703 61.5251C96.5398 61.9194 96.8272 62.3833 97.0155 62.8899L127.004 119.524C127.198 120.035 127.29 120.579 127.274 121.125C127.257 121.672 127.133 122.209 126.908 122.707C126.683 123.205 126.362 123.654 125.963 124.028C125.564 124.401 125.095 124.692 124.584 124.883L87.4916 138.737C87.0285 138.911 86.5381 139 86.0435 139.001Z" fill="#2F2E41"/>
<path d="M87.7026 61.9754L117.457 101.775L97.3236 62.3931C97.1573 61.9336 96.9021 61.5114 96.5727 61.1506C96.2432 60.7897 95.8459 60.4973 95.4035 60.2901C94.961 60.0829 94.4821 59.9648 93.994 59.9428C93.506 59.9207 93.0183 59.9951 92.559 60.1616L87.7026 61.9754Z" fill="#E6E6E6"/>
<path d="M134.815 92.2005L81.6884 88.7775C80.851 88.7236 80.0324 88.5052 79.2794 88.1348C78.5264 87.7644 77.8537 87.2493 77.2997 86.6189C76.7457 85.9884 76.3212 85.255 76.0506 84.4605C75.78 83.666 75.6684 82.826 75.7224 81.9884C75.7763 81.1508 75.9947 80.332 76.365 79.5788C76.7353 78.8256 77.2502 78.1527 77.8805 77.5986C78.5108 77.0445 79.244 76.6199 80.0383 76.3492C80.8326 76.0785 81.6724 75.967 82.5099 76.0209L135.637 79.4437C136.029 79.4689 136.412 79.5711 136.765 79.7446C137.118 79.918 137.433 80.1592 137.692 80.4545C137.952 80.7497 138.15 81.0932 138.277 81.4652C138.404 81.8373 138.456 82.2307 138.431 82.623L137.994 89.4058C137.943 90.198 137.579 90.9375 136.983 91.4616C136.387 91.9857 135.607 92.2515 134.815 92.2005Z" fill="#76239D"/>
<path d="M120.619 94.3948C120.549 94.3948 120.479 94.3926 120.408 94.3881L76.7831 91.5774C76.3608 91.5503 75.9479 91.4401 75.5681 91.2534C75.1883 91.0666 74.849 90.8068 74.5696 90.4889C74.2902 90.171 74.0761 89.8011 73.9397 89.4004C73.8032 88.9997 73.7469 88.576 73.7742 88.1536L74.5202 76.5682C74.5474 76.1457 74.6575 75.7328 74.8443 75.3529C75.0311 74.973 75.2908 74.6337 75.6087 74.3542C75.9266 74.0748 76.2964 73.8607 76.6971 73.7242C77.0977 73.5877 77.5213 73.5315 77.9436 73.5587L121.568 76.3692C122.421 76.425 123.217 76.8169 123.781 77.4588C124.345 78.1007 124.631 78.9401 124.577 79.793L123.831 91.3786C123.79 91.9994 123.571 92.5951 123.2 93.0943C122.828 93.5935 122.321 93.9749 121.738 94.1927C121.38 94.3266 121.001 94.3951 120.619 94.3948Z" fill="#2F2E41"/>
<path d="M70.2578 21.6162C73.3467 18.9589 77.5884 21.336 81.1307 20.9199C84.5197 20.5218 87.1958 17.4811 87.8794 14.2508C88.6769 10.482 86.7213 6.70627 83.8387 4.35653C80.6816 1.78298 76.4945 1.04417 72.5267 1.5203C67.9791 2.06599 63.8202 4.1863 60.0883 6.75092C56.4862 9.14973 53.1737 11.9574 50.2168 15.1179C47.5691 18.0428 45.3257 21.5293 44.6094 25.4652C43.9584 29.0422 44.4555 33.0059 46.5695 36.0361C47.6905 37.5892 49.1927 38.8271 50.9313 39.6304C52.7441 40.5208 54.6778 41.1573 56.434 42.164C59.0894 43.6861 61.6702 46.8421 60.8384 50.1265C60.6601 50.8439 60.3082 51.5065 59.8136 52.056C59.2194 52.7157 58.1476 51.8439 58.7434 51.1824C59.7897 50.0205 59.7485 48.471 59.1909 47.0838C58.5278 45.5207 57.3536 44.2291 55.8607 43.4208C54.0223 42.3695 51.9927 41.7206 50.1085 40.763C48.3051 39.8883 46.7396 38.5906 45.5454 36.9805C43.2903 33.8459 42.6158 29.7664 43.1272 25.9925C43.6807 21.9086 45.7784 18.1975 48.4082 15.0876C51.2701 11.7032 54.7855 8.83838 58.3768 6.26472C62.2303 3.50316 66.4876 1.16845 71.1987 0.324026C75.2824 -0.407959 79.7089 0.0426972 83.2799 2.26869C86.6133 4.34652 89.1694 7.92078 89.4236 11.9147C89.5149 13.7319 89.1204 15.5406 88.2808 17.1547C87.4411 18.7688 86.1867 20.1299 84.6465 21.098C83.0661 22.044 81.2287 22.4698 79.3934 22.3153C77.4314 22.1897 75.4675 21.5887 73.493 21.7556C72.5995 21.8098 71.748 22.1539 71.0677 22.7357C70.3928 23.3163 69.5885 22.192 70.2578 21.6162Z" fill="#2F2E41"/>
<path d="M340.452 275H0.548181C0.40307 275 0.264049 274.942 0.161588 274.839C0.0591276 274.736 0.00158691 274.597 0.00158691 274.452C0.00158691 274.307 0.0591276 274.167 0.161588 274.065C0.264049 273.962 0.40307 273.904 0.548181 273.903H340.452C340.597 273.903 340.737 273.961 340.839 274.064C340.942 274.167 341 274.306 341 274.452C341 274.597 340.942 274.737 340.839 274.839C340.737 274.942 340.597 275 340.452 275Z" fill="#3F3D56"/>
</g>
<defs>
<clipPath id="clip0_532_450">
<rect width="341" height="275" fill="white"/>
</clipPath>
</defs>
</svg>
