<svg width="21" height="22" viewBox="0 0 21 22" fill="none" xmlns="http://www.w3.org/2000/svg">
<path d="M19.7334 15.9926H17.1871V13.3271H15.914V15.9926H13.3678V17.3253H15.914V19.9908H17.1871V17.3253H19.7334V15.9926Z" fill="black"/>
<path d="M15.914 3.33184H14.0043V2.66548C14.0033 2.31235 13.8689 1.97398 13.6303 1.72427C13.3918 1.47457 13.0686 1.33382 12.7312 1.33276H7.63876C7.30142 1.33382 6.97818 1.47457 6.73965 1.72427C6.50111 1.97398 6.36665 2.31235 6.36565 2.66548V3.33184H4.45598C4.11863 3.3329 3.7954 3.47365 3.55686 3.72335C3.31832 3.97306 3.18387 4.31143 3.18286 4.66457V18.6581C3.18387 19.0113 3.31832 19.3496 3.55686 19.5993C3.7954 19.849 4.11863 19.9898 4.45598 19.9909H10.8215V18.6581H4.45598V4.66457H6.36565V6.66365H14.0043V4.66457H15.914V10.6618H17.1871V4.66457C17.1861 4.31143 17.0517 3.97306 16.8131 3.72335C16.5746 3.47365 16.2513 3.3329 15.914 3.33184ZM12.7312 5.33093H7.63876V2.66548H12.7312V5.33093Z" fill="#76239D"/>
</svg>
