<svg width="22" height="24" viewBox="0 0 22 24" fill="none" xmlns="http://www.w3.org/2000/svg">
<g clip-path="url(#clip0_541_2239)">
<path d="M1.66305 1.63721C0.857225 1.63721 0.205444 2.36921 0.205444 3.27321V20.7272C0.205444 21.6312 0.857225 22.3632 1.66305 22.3632H20.1177C20.9235 22.3632 21.5753 21.6312 21.5753 20.7272V3.27321C21.5753 2.36921 20.9235 1.63721 20.1177 1.63721H1.66305ZM2.14832 3.81821H19.6324V20.1822H17.2052V19.0922H12.8333V20.1822H2.14832V3.81821ZM10.8904 8.18221C10.5039 8.18221 10.1333 8.35462 9.86001 8.66153C9.58674 8.96843 9.43322 9.38468 9.43322 9.81871C9.43322 10.2527 9.58674 10.669 9.86001 10.9759C10.1333 11.2828 10.5039 11.4552 10.8904 11.4552C11.2768 11.4552 11.6475 11.2828 11.9207 10.9759C12.194 10.669 12.3475 10.2527 12.3475 9.81871C12.3475 9.38468 12.194 8.96843 11.9207 8.66153C11.6475 8.35462 11.2768 8.18221 10.8904 8.18221ZM7.00551 10.0922C6.40181 10.0922 5.9112 10.6422 5.9112 11.3182C5.91932 11.6377 6.03803 11.941 6.24212 12.1638C6.44621 12.3866 6.71959 12.5112 7.00418 12.5112C7.28877 12.5112 7.56215 12.3866 7.76623 12.1638C7.97032 11.941 8.08904 11.6377 8.09716 11.3182C8.09716 10.6412 7.60832 10.0922 7.00551 10.0922ZM14.7752 10.0922C14.6292 10.0875 14.4838 10.1158 14.3477 10.1753C14.2115 10.2348 14.0874 10.3244 13.9826 10.4388C13.8778 10.5531 13.7946 10.6899 13.7377 10.8411C13.6808 10.9922 13.6515 11.1546 13.6515 11.3187C13.6515 11.4828 13.6808 11.6452 13.7377 11.7963C13.7946 11.9475 13.8778 12.0843 13.9826 12.1986C14.0874 12.313 14.2115 12.4026 14.3477 12.4621C14.4838 12.5216 14.6292 12.5499 14.7752 12.5452C15.0595 12.5361 15.3294 12.4029 15.5275 12.1739C15.7257 11.9448 15.8366 11.6381 15.8366 11.3187C15.8366 10.9994 15.7257 10.6926 15.5275 10.4636C15.3294 10.2345 15.0595 10.1013 14.7752 10.0922ZM10.8904 12.5452C9.84058 12.5452 8.74181 12.9462 8.08736 13.5512C7.7371 13.4284 7.37246 13.365 7.00551 13.3632C5.83551 13.3632 4.57558 14.0582 4.57558 14.9222V15.8182H17.2052V14.9222C17.2052 14.0582 15.9452 13.3632 14.7752 13.3632C14.4102 13.3632 14.0362 13.4312 13.6934 13.5512C13.0389 12.9462 11.9402 12.5452 10.8904 12.5452Z" fill="black"/>
</g>
<defs>
<clipPath id="clip0_541_2239">
<rect width="21.3699" height="24" fill="white" transform="translate(0.205444)"/>
</clipPath>
</defs>
</svg>
