<svg width="22" height="24" viewBox="0 0 22 24" fill="none" xmlns="http://www.w3.org/2000/svg">
<g clip-path="url(#clip0_541_2230)">
<path d="M12.3086 6.9801C11.0555 6.7051 9.75904 6.82509 8.56292 7.32676C8.50485 7.35259 8.45187 7.39101 8.40701 7.43983C8.36216 7.48865 8.32631 7.54692 8.3015 7.6113C8.25141 7.74132 8.24936 7.88837 8.2958 8.0201C8.34224 8.15182 8.43338 8.25743 8.54915 8.31369C8.66493 8.36995 8.79586 8.37226 8.91315 8.3201C9.94304 7.88276 11.0602 7.77206 12.1424 8.0001C12.2058 8.01885 12.272 8.02263 12.3368 8.01122C12.4016 7.99981 12.4636 7.97344 12.5189 7.93378C12.5742 7.89412 12.6215 7.84203 12.658 7.78079C12.6945 7.71955 12.7192 7.65049 12.7307 7.57797C12.7423 7.50544 12.7403 7.43103 12.7249 7.35941C12.7095 7.28779 12.6811 7.22052 12.6415 7.16184C12.6018 7.10317 12.5518 7.05435 12.4945 7.01849C12.4372 6.98262 12.3739 6.96047 12.3086 6.95343V6.9801Z" fill="black"/>
<path d="M15.6684 12.0467C16.1143 12.0467 16.4757 11.6408 16.4757 11.1401C16.4757 10.6393 16.1143 10.2334 15.6684 10.2334C15.2226 10.2334 14.8611 10.6393 14.8611 11.1401C14.8611 11.6408 15.2226 12.0467 15.6684 12.0467Z" fill="black"/>
<path d="M21.6817 12.4199C21.6267 12.3285 21.5523 12.2538 21.4653 12.2026C21.3783 12.1514 21.2813 12.1253 21.183 12.1266C20.7034 12.0518 20.2634 11.787 19.9424 11.3799C19.3246 10.6215 18.7996 9.77407 18.3812 8.8599L20.0908 5.8599C20.1945 5.68605 20.2581 5.48592 20.2757 5.27758C20.2933 5.06923 20.2645 4.85924 20.1917 4.66657C20.1189 4.49128 20.0087 4.3388 19.8711 4.22254C19.7334 4.10629 19.5724 4.02983 19.4022 3.9999C18.3151 3.83536 17.2085 4.00827 16.2027 4.4999C15.6262 4.78507 15.0838 5.15013 14.5881 5.58657C13.6171 5.09762 12.5833 4.78484 11.525 4.6599C7.31637 4.1999 3.46979 7.26657 2.9771 11.3332C2.78509 11.2362 2.61312 11.0955 2.4721 10.9199C2.33109 10.7443 2.2241 10.5377 2.15792 10.3132C2.1156 10.1593 2.10114 9.99743 2.11542 9.83713C2.12969 9.67683 2.1724 9.52137 2.24103 9.3799C2.30257 9.26113 2.39052 9.16235 2.49628 9.09324C2.56838 9.04421 2.63119 8.97971 2.6811 8.90343C2.73101 8.82714 2.76706 8.74056 2.78718 8.64863C2.8073 8.5567 2.8111 8.46122 2.79836 8.36764C2.78562 8.27406 2.7566 8.18422 2.71294 8.10323C2.66929 8.02225 2.61186 7.95172 2.54393 7.89566C2.47601 7.83961 2.39892 7.79913 2.31706 7.77653C2.23521 7.75394 2.15019 7.74967 2.06687 7.76397C1.98354 7.77828 1.90354 7.81087 1.83144 7.8599C1.54408 8.05798 1.30695 8.33578 1.14285 8.66657C0.990285 8.97701 0.894377 9.3185 0.860742 9.67107C0.827106 10.0236 0.856418 10.3802 0.946961 10.7199C1.05841 11.1315 1.24323 11.5134 1.49018 11.8423C1.73713 12.1713 2.04106 12.4403 2.38349 12.6332L2.92961 12.9399C2.99784 14.5627 3.36574 16.1519 4.00998 17.6066L4.11089 17.8599C4.62575 19.0828 5.28244 20.2238 6.06386 21.2532C6.11948 21.3243 6.18796 21.3813 6.26472 21.4204C6.34149 21.4595 6.42478 21.4798 6.50906 21.4799H9.19217C9.28939 21.4794 9.38501 21.452 9.47061 21.4002C9.55622 21.3485 9.62919 21.2739 9.68312 21.183C9.73705 21.0922 9.77029 20.9879 9.77991 20.8792C9.78953 20.7705 9.77523 20.6609 9.73829 20.5599L9.50678 19.9599L10.2072 20.0466C10.9968 20.1342 11.7921 20.1342 12.5817 20.0466C12.8013 20.4466 13.0387 20.8466 13.2999 21.2399C13.3546 21.3239 13.426 21.3924 13.5085 21.4399C13.5909 21.4873 13.6822 21.5125 13.7748 21.5132H16.3511C16.449 21.5131 16.5455 21.4858 16.6318 21.4337C16.7181 21.3816 16.7915 21.3063 16.8456 21.2145C16.8997 21.1228 16.9327 21.0174 16.9417 20.9078C16.9507 20.7983 16.9354 20.6879 16.8972 20.5866C16.7963 20.3199 16.6954 20.0332 16.6182 19.7866C16.5113 19.4332 16.4282 19.1199 16.3629 18.8199C17.0185 18.4224 17.6202 17.9218 18.1497 17.3332C18.7412 17.4135 19.3391 17.4135 19.9305 17.3332C20.0331 17.3158 20.1299 17.2685 20.2111 17.1959C20.2924 17.1234 20.3553 17.0282 20.3935 16.9199L21.7351 13.0466C21.7728 12.9453 21.7877 12.835 21.7784 12.7257C21.7691 12.6164 21.7358 12.5113 21.6817 12.4199ZM19.4378 16.0466C18.9718 16.0764 18.5043 16.0518 18.0429 15.9732C17.5173 15.8735 17.01 15.6776 16.541 15.3932C16.4021 15.3159 16.2418 15.3026 16.0943 15.3563C15.9469 15.41 15.8239 15.5263 15.7518 15.6804C15.6797 15.8345 15.6642 16.0142 15.7085 16.1811C15.7528 16.3479 15.8535 16.4887 15.989 16.5732C16.2371 16.7193 16.4928 16.8484 16.7547 16.9599C16.431 17.2703 16.0716 17.5304 15.6862 17.7332L15.057 18.0532C15.057 18.0532 15.3479 19.5132 15.5438 20.1599H14.131C13.9885 19.9332 13.2703 18.5866 13.2703 18.5866L12.8725 18.6466C12.0371 18.7819 11.1906 18.8087 10.3497 18.7266C9.95792 18.6866 9.30495 18.5932 8.79445 18.4932L7.87436 18.3132C7.87436 18.3132 8.24833 19.9332 8.31956 20.1399H6.78806C6.16246 19.2796 5.63224 18.3372 5.20906 17.3332L5.10221 17.0732C4.33094 15.4059 4.00524 13.5237 4.16431 11.6532C4.48486 8.19323 7.79719 5.5799 11.4004 5.9599C12.4486 6.09186 13.4686 6.42563 14.4159 6.94657L14.7839 7.1399L15.0808 6.82657C15.543 6.36269 16.0654 5.98053 16.6301 5.69324C17.3772 5.32933 18.1933 5.18039 19.0045 5.2599L16.9981 8.78657L17.1465 9.1199C17.6649 10.2927 18.3262 11.3786 19.1113 12.3466C19.476 12.7468 19.9078 13.0618 20.3817 13.2732L19.4378 16.0466Z" fill="black"/>
</g>
<defs>
<clipPath id="clip0_541_2230">
<rect width="21.3699" height="24" fill="white" transform="translate(0.602661)"/>
</clipPath>
</defs>
</svg>
