<svg width="21" height="18" viewBox="0 0 21 18" fill="none" xmlns="http://www.w3.org/2000/svg">
<path d="M1.01426 0H19.2702C19.5392 0 19.7972 0.105357 19.9874 0.292893C20.1776 0.48043 20.2844 0.734783 20.2844 1V17C20.2844 17.2652 20.1776 17.5196 19.9874 17.7071C19.7972 17.8946 19.5392 18 19.2702 18H1.01426C0.745277 18 0.487307 17.8946 0.297104 17.7071C0.106901 17.5196 4.57764e-05 17.2652 4.57764e-05 17V1C4.57764e-05 0.734783 0.106901 0.48043 0.297104 0.292893C0.487307 0.105357 0.745277 0 1.01426 0ZM2.02848 2V16H18.256V2H2.02848ZM6.59247 11H12.1707C12.3052 11 12.4342 10.9473 12.5293 10.8536C12.6244 10.7598 12.6778 10.6326 12.6778 10.5C12.6778 10.3674 12.6244 10.2402 12.5293 10.1464C12.4342 10.0527 12.3052 10 12.1707 10H8.1138C7.44133 10 6.7964 9.73661 6.3209 9.26777C5.84539 8.79893 5.57825 8.16304 5.57825 7.5C5.57825 6.83696 5.84539 6.20107 6.3209 5.73223C6.7964 5.26339 7.44133 5 8.1138 5H9.12802V3H11.1565V5H13.692V7H8.1138C7.9793 7 7.85032 7.05268 7.75522 7.14645C7.66012 7.24021 7.60669 7.36739 7.60669 7.5C7.60669 7.63261 7.66012 7.75978 7.75522 7.85355C7.85032 7.94732 7.9793 8 8.1138 8H12.1707C12.8431 8 13.4881 8.26339 13.9636 8.73223C14.4391 9.20107 14.7062 9.83696 14.7062 10.5C14.7062 11.163 14.4391 11.7989 13.9636 12.2678C13.4881 12.7366 12.8431 13 12.1707 13H11.1565V15H9.12802V13H6.59247V11Z" fill="#76239D"/>
</svg>
